<?xml version="1.0" encoding="utf-8" standalone="no"?>
<!DOCTYPE svg PUBLIC "-//W3C//DTD SVG 1.1//EN"
  "http://www.w3.org/Graphics/SVG/1.1/DTD/svg11.dtd">
<!-- Created with matplotlib (https://matplotlib.org/) -->
<svg height="345.6pt" version="1.1" viewBox="0 0 460.8 345.6" width="460.8pt" xmlns="http://www.w3.org/2000/svg" xmlns:xlink="http://www.w3.org/1999/xlink">
 <defs>
  <style type="text/css">
*{stroke-linecap:butt;stroke-linejoin:round;}
  </style>
 </defs>
 <g id="figure_1">
  <g id="patch_1">
   <path d="M 0 345.6 
L 460.8 345.6 
L 460.8 0 
L 0 0 
z
" style="fill:#ffffff;"/>
  </g>
  <g id="axes_1">
   <g id="patch_2">
    <path d="M 57.6 307.584 
L 414.72 307.584 
L 414.72 41.472 
L 57.6 41.472 
z
" style="fill:#ffffff;"/>
   </g>
   <g id="PathCollection_1">
    <defs>
     <path d="M 0 1.118034 
C 0.296506 1.118034 0.580908 1.000231 0.790569 0.790569 
C 1.000231 0.580908 1.118034 0.296506 1.118034 0 
C 1.118034 -0.296506 1.000231 -0.580908 0.790569 -0.790569 
C 0.580908 -1.000231 0.296506 -1.118034 0 -1.118034 
C -0.296506 -1.118034 -0.580908 -1.000231 -0.790569 -0.790569 
C -1.000231 -0.580908 -1.118034 -0.296506 -1.118034 0 
C -1.118034 0.296506 -1.000231 0.580908 -0.790569 0.790569 
C -0.580908 1.000231 -0.296506 1.118034 0 1.118034 
z
" id="m466d8f7f6e" style="stroke:#1f77b4;"/>
    </defs>
    <g clip-path="url(#pd059f40346)">
     <use style="fill:#1f77b4;stroke:#1f77b4;" x="73.832727" xlink:href="#m466d8f7f6e" y="54.859742"/>
     <use style="fill:#1f77b4;stroke:#1f77b4;" x="77.108563" xlink:href="#m466d8f7f6e" y="67.512321"/>
     <use style="fill:#1f77b4;stroke:#1f77b4;" x="79.343838" xlink:href="#m466d8f7f6e" y="76.862094"/>
     <use style="fill:#1f77b4;stroke:#1f77b4;" x="83.428998" xlink:href="#m466d8f7f6e" y="87.122787"/>
     <use style="fill:#1f77b4;stroke:#1f77b4;" x="84.739332" xlink:href="#m466d8f7f6e" y="96.105245"/>
     <use style="fill:#1f77b4;stroke:#1f77b4;" x="85.972587" xlink:href="#m466d8f7f6e" y="104.208844"/>
     <use style="fill:#1f77b4;stroke:#1f77b4;" x="90.828531" xlink:href="#m466d8f7f6e" y="111.874435"/>
     <use style="fill:#1f77b4;stroke:#1f77b4;" x="91.830552" xlink:href="#m466d8f7f6e" y="119.698772"/>
     <use style="fill:#1f77b4;stroke:#1f77b4;" x="93.526278" xlink:href="#m466d8f7f6e" y="125.474062"/>
     <use style="fill:#1f77b4;stroke:#1f77b4;" x="94.990769" xlink:href="#m466d8f7f6e" y="130.263069"/>
     <use style="fill:#1f77b4;stroke:#1f77b4;" x="100.578959" xlink:href="#m466d8f7f6e" y="137.174638"/>
     <use style="fill:#1f77b4;stroke:#1f77b4;" x="103.816255" xlink:href="#m466d8f7f6e" y="143.038922"/>
     <use style="fill:#1f77b4;stroke:#1f77b4;" x="102.428842" xlink:href="#m466d8f7f6e" y="146.533344"/>
     <use style="fill:#1f77b4;stroke:#1f77b4;" x="107.670179" xlink:href="#m466d8f7f6e" y="149.428702"/>
     <use style="fill:#1f77b4;stroke:#1f77b4;" x="109.520062" xlink:href="#m466d8f7f6e" y="155.517109"/>
     <use style="fill:#1f77b4;stroke:#1f77b4;" x="109.751298" xlink:href="#m466d8f7f6e" y="157.897644"/>
     <use style="fill:#1f77b4;stroke:#1f77b4;" x="111.755338" xlink:href="#m466d8f7f6e" y="164.832287"/>
     <use style="fill:#1f77b4;stroke:#1f77b4;" x="114.838477" xlink:href="#m466d8f7f6e" y="164.588179"/>
     <use style="fill:#1f77b4;stroke:#1f77b4;" x="120.002735" xlink:href="#m466d8f7f6e" y="170.042669"/>
     <use style="fill:#1f77b4;stroke:#1f77b4;" x="121.313069" xlink:href="#m466d8f7f6e" y="171.953322"/>
     <use style="fill:#1f77b4;stroke:#1f77b4;" x="121.929697" xlink:href="#m466d8f7f6e" y="175.756828"/>
     <use style="fill:#1f77b4;stroke:#1f77b4;" x="123.77958" xlink:href="#m466d8f7f6e" y="180.644871"/>
     <use style="fill:#1f77b4;stroke:#1f77b4;" x="128.173054" xlink:href="#m466d8f7f6e" y="180.983452"/>
     <use style="fill:#1f77b4;stroke:#1f77b4;" x="126.785641" xlink:href="#m466d8f7f6e" y="182.297932"/>
     <use style="fill:#1f77b4;stroke:#1f77b4;" x="131.102036" xlink:href="#m466d8f7f6e" y="187.576841"/>
     <use style="fill:#1f77b4;stroke:#1f77b4;" x="134.801803" xlink:href="#m466d8f7f6e" y="188.979405"/>
     <use style="fill:#1f77b4;stroke:#1f77b4;" x="134.41641" xlink:href="#m466d8f7f6e" y="190.637682"/>
     <use style="fill:#1f77b4;stroke:#1f77b4;" x="137.653706" xlink:href="#m466d8f7f6e" y="194.000107"/>
     <use style="fill:#1f77b4;stroke:#1f77b4;" x="141.738866" xlink:href="#m466d8f7f6e" y="194.55907"/>
     <use style="fill:#1f77b4;stroke:#1f77b4;" x="142.355493" xlink:href="#m466d8f7f6e" y="197.315854"/>
     <use style="fill:#1f77b4;stroke:#1f77b4;" x="148.830085" xlink:href="#m466d8f7f6e" y="199.618039"/>
     <use style="fill:#1f77b4;stroke:#1f77b4;" x="148.213458" xlink:href="#m466d8f7f6e" y="201.989534"/>
     <use style="fill:#1f77b4;stroke:#1f77b4;" x="149.061321" xlink:href="#m466d8f7f6e" y="202.942659"/>
     <use style="fill:#1f77b4;stroke:#1f77b4;" x="152.529852" xlink:href="#m466d8f7f6e" y="204.981652"/>
     <use style="fill:#1f77b4;stroke:#1f77b4;" x="158.387817" xlink:href="#m466d8f7f6e" y="207.840106"/>
     <use style="fill:#1f77b4;stroke:#1f77b4;" x="158.696131" xlink:href="#m466d8f7f6e" y="209.174122"/>
     <use style="fill:#1f77b4;stroke:#1f77b4;" x="159.698151" xlink:href="#m466d8f7f6e" y="210.246256"/>
     <use style="fill:#1f77b4;stroke:#1f77b4;" x="163.474996" xlink:href="#m466d8f7f6e" y="212.153528"/>
     <use style="fill:#1f77b4;stroke:#1f77b4;" x="165.32488" xlink:href="#m466d8f7f6e" y="213.430832"/>
     <use style="fill:#1f77b4;stroke:#1f77b4;" x="163.629153" xlink:href="#m466d8f7f6e" y="214.687982"/>
     <use style="fill:#1f77b4;stroke:#1f77b4;" x="169.795431" xlink:href="#m466d8f7f6e" y="215.301347"/>
     <use style="fill:#1f77b4;stroke:#1f77b4;" x="170.720373" xlink:href="#m466d8f7f6e" y="215.982218"/>
     <use style="fill:#1f77b4;stroke:#1f77b4;" x="173.41812" xlink:href="#m466d8f7f6e" y="217.416283"/>
     <use style="fill:#1f77b4;stroke:#1f77b4;" x="177.040808" xlink:href="#m466d8f7f6e" y="217.784699"/>
     <use style="fill:#1f77b4;stroke:#1f77b4;" x="180.432261" xlink:href="#m466d8f7f6e" y="220.038881"/>
     <use style="fill:#1f77b4;stroke:#1f77b4;" x="182.667537" xlink:href="#m466d8f7f6e" y="220.172269"/>
     <use style="fill:#1f77b4;stroke:#1f77b4;" x="181.125967" xlink:href="#m466d8f7f6e" y="221.276361"/>
     <use style="fill:#1f77b4;stroke:#1f77b4;" x="184.209106" xlink:href="#m466d8f7f6e" y="221.024537"/>
     <use style="fill:#1f77b4;stroke:#1f77b4;" x="190.529542" xlink:href="#m466d8f7f6e" y="223.422888"/>
     <use style="fill:#1f77b4;stroke:#1f77b4;" x="190.529542" xlink:href="#m466d8f7f6e" y="222.901619"/>
     <use style="fill:#1f77b4;stroke:#1f77b4;" x="191.531562" xlink:href="#m466d8f7f6e" y="224.326523"/>
     <use style="fill:#1f77b4;stroke:#1f77b4;" x="197.312448" xlink:href="#m466d8f7f6e" y="225.852234"/>
     <use style="fill:#1f77b4;stroke:#1f77b4;" x="199.085253" xlink:href="#m466d8f7f6e" y="225.986323"/>
     <use style="fill:#1f77b4;stroke:#1f77b4;" x="200.780979" xlink:href="#m466d8f7f6e" y="226.303089"/>
     <use style="fill:#1f77b4;stroke:#1f77b4;" x="202.322549" xlink:href="#m466d8f7f6e" y="226.721081"/>
     <use style="fill:#1f77b4;stroke:#1f77b4;" x="205.482766" xlink:href="#m466d8f7f6e" y="228.205248"/>
     <use style="fill:#1f77b4;stroke:#1f77b4;" x="207.563885" xlink:href="#m466d8f7f6e" y="228.300013"/>
     <use style="fill:#1f77b4;stroke:#1f77b4;" x="210.261632" xlink:href="#m466d8f7f6e" y="229.13692"/>
     <use style="fill:#1f77b4;stroke:#1f77b4;" x="214.423869" xlink:href="#m466d8f7f6e" y="229.895569"/>
     <use style="fill:#1f77b4;stroke:#1f77b4;" x="213.807242" xlink:href="#m466d8f7f6e" y="228.939661"/>
     <use style="fill:#1f77b4;stroke:#1f77b4;" x="217.275773" xlink:href="#m466d8f7f6e" y="229.927011"/>
     <use style="fill:#1f77b4;stroke:#1f77b4;" x="217.42993" xlink:href="#m466d8f7f6e" y="230.528707"/>
     <use style="fill:#1f77b4;stroke:#1f77b4;" x="220.97554" xlink:href="#m466d8f7f6e" y="230.73866"/>
     <use style="fill:#1f77b4;stroke:#1f77b4;" x="210.87826" xlink:href="#m466d8f7f6e" y="285.981004"/>
     <use style="fill:#1f77b4;stroke:#1f77b4;" x="226.371033" xlink:href="#m466d8f7f6e" y="288.957482"/>
     <use style="fill:#1f77b4;stroke:#1f77b4;" x="228.683388" xlink:href="#m466d8f7f6e" y="289.259829"/>
     <use style="fill:#1f77b4;stroke:#1f77b4;" x="230.456193" xlink:href="#m466d8f7f6e" y="289.570964"/>
     <use style="fill:#1f77b4;stroke:#1f77b4;" x="233.231018" xlink:href="#m466d8f7f6e" y="289.760191"/>
     <use style="fill:#1f77b4;stroke:#1f77b4;" x="236.082922" xlink:href="#m466d8f7f6e" y="290.023392"/>
     <use style="fill:#1f77b4;stroke:#1f77b4;" x="237.316177" xlink:href="#m466d8f7f6e" y="290.233486"/>
     <use style="fill:#1f77b4;stroke:#1f77b4;" x="240.091002" xlink:href="#m466d8f7f6e" y="290.078484"/>
     <use style="fill:#1f77b4;stroke:#1f77b4;" x="243.636612" xlink:href="#m466d8f7f6e" y="291.285093"/>
     <use style="fill:#1f77b4;stroke:#1f77b4;" x="244.638632" xlink:href="#m466d8f7f6e" y="291.234529"/>
     <use style="fill:#1f77b4;stroke:#1f77b4;" x="247.413458" xlink:href="#m466d8f7f6e" y="291.451178"/>
     <use style="fill:#1f77b4;stroke:#1f77b4;" x="249.571655" xlink:href="#m466d8f7f6e" y="292.07194"/>
     <use style="fill:#1f77b4;stroke:#1f77b4;" x="251.652774" xlink:href="#m466d8f7f6e" y="292.006256"/>
     <use style="fill:#1f77b4;stroke:#1f77b4;" x="255.044227" xlink:href="#m466d8f7f6e" y="291.553343"/>
     <use style="fill:#1f77b4;stroke:#1f77b4;" x="256.739953" xlink:href="#m466d8f7f6e" y="292.551019"/>
     <use style="fill:#1f77b4;stroke:#1f77b4;" x="258.666915" xlink:href="#m466d8f7f6e" y="291.971075"/>
     <use style="fill:#1f77b4;stroke:#1f77b4;" x="260.593877" xlink:href="#m466d8f7f6e" y="292.46462"/>
     <use style="fill:#1f77b4;stroke:#1f77b4;" x="263.98533" xlink:href="#m466d8f7f6e" y="292.766297"/>
     <use style="fill:#1f77b4;stroke:#1f77b4;" x="266.143528" xlink:href="#m466d8f7f6e" y="293.145953"/>
     <use style="fill:#1f77b4;stroke:#1f77b4;" x="268.995431" xlink:href="#m466d8f7f6e" y="293.131777"/>
     <use style="fill:#1f77b4;stroke:#1f77b4;" x="270.691158" xlink:href="#m466d8f7f6e" y="293.121654"/>
     <use style="fill:#1f77b4;stroke:#1f77b4;" x="273.003512" xlink:href="#m466d8f7f6e" y="293.480363"/>
     <use style="fill:#1f77b4;stroke:#1f77b4;" x="274.930474" xlink:href="#m466d8f7f6e" y="293.521618"/>
     <use style="fill:#1f77b4;stroke:#1f77b4;" x="277.319907" xlink:href="#m466d8f7f6e" y="293.71584"/>
     <use style="fill:#1f77b4;stroke:#1f77b4;" x="279.632261" xlink:href="#m466d8f7f6e" y="293.400658"/>
     <use style="fill:#1f77b4;stroke:#1f77b4;" x="282.7154" xlink:href="#m466d8f7f6e" y="293.029646"/>
     <use style="fill:#1f77b4;stroke:#1f77b4;" x="284.719441" xlink:href="#m466d8f7f6e" y="293.705087"/>
     <use style="fill:#1f77b4;stroke:#1f77b4;" x="287.879658" xlink:href="#m466d8f7f6e" y="293.810163"/>
     <use style="fill:#1f77b4;stroke:#1f77b4;" x="289.421228" xlink:href="#m466d8f7f6e" y="293.785568"/>
     <use style="fill:#1f77b4;stroke:#1f77b4;" x="292.504367" xlink:href="#m466d8f7f6e" y="294.062767"/>
     <use style="fill:#1f77b4;stroke:#1f77b4;" x="294.585486" xlink:href="#m466d8f7f6e" y="294.036314"/>
     <use style="fill:#1f77b4;stroke:#1f77b4;" x="296.281212" xlink:href="#m466d8f7f6e" y="294.149941"/>
     <use style="fill:#1f77b4;stroke:#1f77b4;" x="298.593566" xlink:href="#m466d8f7f6e" y="293.772957"/>
     <use style="fill:#1f77b4;stroke:#1f77b4;" x="301.291313" xlink:href="#m466d8f7f6e" y="293.759376"/>
     <use style="fill:#1f77b4;stroke:#1f77b4;" x="304.297374" xlink:href="#m466d8f7f6e" y="293.708644"/>
     <use style="fill:#1f77b4;stroke:#1f77b4;" x="306.99512" xlink:href="#m466d8f7f6e" y="294.095532"/>
     <use style="fill:#1f77b4;stroke:#1f77b4;" x="310.771966" xlink:href="#m466d8f7f6e" y="294.136293"/>
     <use style="fill:#1f77b4;stroke:#1f77b4;" x="310.463652" xlink:href="#m466d8f7f6e" y="293.974892"/>
     <use style="fill:#1f77b4;stroke:#1f77b4;" x="313.778026" xlink:href="#m466d8f7f6e" y="294.189602"/>
     <use style="fill:#1f77b4;stroke:#1f77b4;" x="316.321616" xlink:href="#m466d8f7f6e" y="293.831639"/>
     <use style="fill:#1f77b4;stroke:#1f77b4;" x="318.402735" xlink:href="#m466d8f7f6e" y="293.684843"/>
     <use style="fill:#1f77b4;stroke:#1f77b4;" x="320.252618" xlink:href="#m466d8f7f6e" y="293.634253"/>
     <use style="fill:#1f77b4;stroke:#1f77b4;" x="322.256659" xlink:href="#m466d8f7f6e" y="293.716295"/>
     <use style="fill:#1f77b4;stroke:#1f77b4;" x="325.416876" xlink:href="#m466d8f7f6e" y="293.746368"/>
     <use style="fill:#1f77b4;stroke:#1f77b4;" x="326.033504" xlink:href="#m466d8f7f6e" y="293.99461"/>
     <use style="fill:#1f77b4;stroke:#1f77b4;" x="329.733271" xlink:href="#m466d8f7f6e" y="293.82235"/>
     <use style="fill:#1f77b4;stroke:#1f77b4;" x="332.970567" xlink:href="#m466d8f7f6e" y="294.168048"/>
     <use style="fill:#1f77b4;stroke:#1f77b4;" x="334.280901" xlink:href="#m466d8f7f6e" y="294.196258"/>
     <use style="fill:#1f77b4;stroke:#1f77b4;" x="337.441119" xlink:href="#m466d8f7f6e" y="293.995428"/>
     <use style="fill:#1f77b4;stroke:#1f77b4;" x="339.522238" xlink:href="#m466d8f7f6e" y="294.097889"/>
     <use style="fill:#1f77b4;stroke:#1f77b4;" x="342.065828" xlink:href="#m466d8f7f6e" y="293.999717"/>
     <use style="fill:#1f77b4;stroke:#1f77b4;" x="343.530319" xlink:href="#m466d8f7f6e" y="294.09626"/>
     <use style="fill:#1f77b4;stroke:#1f77b4;" x="345.99683" xlink:href="#m466d8f7f6e" y="294.185992"/>
     <use style="fill:#1f77b4;stroke:#1f77b4;" x="348.463341" xlink:href="#m466d8f7f6e" y="293.947303"/>
     <use style="fill:#1f77b4;stroke:#1f77b4;" x="350.236146" xlink:href="#m466d8f7f6e" y="294.000788"/>
     <use style="fill:#1f77b4;stroke:#1f77b4;" x="353.704678" xlink:href="#m466d8f7f6e" y="293.82315"/>
     <use style="fill:#1f77b4;stroke:#1f77b4;" x="355.477483" xlink:href="#m466d8f7f6e" y="293.824205"/>
     <use style="fill:#1f77b4;stroke:#1f77b4;" x="357.173209" xlink:href="#m466d8f7f6e" y="293.683268"/>
     <use style="fill:#1f77b4;stroke:#1f77b4;" x="361.258368" xlink:href="#m466d8f7f6e" y="293.825202"/>
     <use style="fill:#1f77b4;stroke:#1f77b4;" x="362.954095" xlink:href="#m466d8f7f6e" y="293.737972"/>
     <use style="fill:#1f77b4;stroke:#1f77b4;" x="365.112292" xlink:href="#m466d8f7f6e" y="293.465074"/>
     <use style="fill:#1f77b4;stroke:#1f77b4;" x="367.73296" xlink:href="#m466d8f7f6e" y="293.23958"/>
     <use style="fill:#1f77b4;stroke:#1f77b4;" x="369.043294" xlink:href="#m466d8f7f6e" y="293.318156"/>
     <use style="fill:#1f77b4;stroke:#1f77b4;" x="371.972277" xlink:href="#m466d8f7f6e" y="292.885268"/>
     <use style="fill:#1f77b4;stroke:#1f77b4;" x="373.976317" xlink:href="#m466d8f7f6e" y="293.024958"/>
     <use style="fill:#1f77b4;stroke:#1f77b4;" x="377.290692" xlink:href="#m466d8f7f6e" y="292.927499"/>
     <use style="fill:#1f77b4;stroke:#1f77b4;" x="377.36777" xlink:href="#m466d8f7f6e" y="292.80281"/>
     <use style="fill:#1f77b4;stroke:#1f77b4;" x="382.146636" xlink:href="#m466d8f7f6e" y="292.88062"/>
     <use style="fill:#1f77b4;stroke:#1f77b4;" x="383.148656" xlink:href="#m466d8f7f6e" y="292.707248"/>
     <use style="fill:#1f77b4;stroke:#1f77b4;" x="385.229775" xlink:href="#m466d8f7f6e" y="292.257641"/>
     <use style="fill:#1f77b4;stroke:#1f77b4;" x="389.00662" xlink:href="#m466d8f7f6e" y="291.95842"/>
     <use style="fill:#1f77b4;stroke:#1f77b4;" x="390.625268" xlink:href="#m466d8f7f6e" y="291.742873"/>
     <use style="fill:#1f77b4;stroke:#1f77b4;" x="392.320995" xlink:href="#m466d8f7f6e" y="292.436075"/>
     <use style="fill:#1f77b4;stroke:#1f77b4;" x="394.402113" xlink:href="#m466d8f7f6e" y="292.212099"/>
     <use style="fill:#1f77b4;stroke:#1f77b4;" x="398.487273" xlink:href="#m466d8f7f6e" y="291.94205"/>
    </g>
   </g>
   <g id="matplotlib.axis_1">
    <g id="xtick_1">
     <g id="line2d_1">
      <defs>
       <path d="M 0 0 
L 0 3.5 
" id="m7ad9f21d76" style="stroke:#000000;stroke-width:0.8;"/>
      </defs>
      <g>
       <use style="stroke:#000000;stroke-width:0.8;" x="68.54141" xlink:href="#m7ad9f21d76" y="307.584"/>
      </g>
     </g>
     <g id="text_1">
      <!-- 0.2 -->
      <defs>
       <path d="M 31.78125 66.40625 
Q 24.171875 66.40625 20.328125 58.90625 
Q 16.5 51.421875 16.5 36.375 
Q 16.5 21.390625 20.328125 13.890625 
Q 24.171875 6.390625 31.78125 6.390625 
Q 39.453125 6.390625 43.28125 13.890625 
Q 47.125 21.390625 47.125 36.375 
Q 47.125 51.421875 43.28125 58.90625 
Q 39.453125 66.40625 31.78125 66.40625 
z
M 31.78125 74.21875 
Q 44.046875 74.21875 50.515625 64.515625 
Q 56.984375 54.828125 56.984375 36.375 
Q 56.984375 17.96875 50.515625 8.265625 
Q 44.046875 -1.421875 31.78125 -1.421875 
Q 19.53125 -1.421875 13.0625 8.265625 
Q 6.59375 17.96875 6.59375 36.375 
Q 6.59375 54.828125 13.0625 64.515625 
Q 19.53125 74.21875 31.78125 74.21875 
z
" id="DejaVuSans-48"/>
       <path d="M 10.6875 12.40625 
L 21 12.40625 
L 21 0 
L 10.6875 0 
z
" id="DejaVuSans-46"/>
       <path d="M 19.1875 8.296875 
L 53.609375 8.296875 
L 53.609375 0 
L 7.328125 0 
L 7.328125 8.296875 
Q 12.9375 14.109375 22.625 23.890625 
Q 32.328125 33.6875 34.8125 36.53125 
Q 39.546875 41.84375 41.421875 45.53125 
Q 43.3125 49.21875 43.3125 52.78125 
Q 43.3125 58.59375 39.234375 62.25 
Q 35.15625 65.921875 28.609375 65.921875 
Q 23.96875 65.921875 18.8125 64.3125 
Q 13.671875 62.703125 7.8125 59.421875 
L 7.8125 69.390625 
Q 13.765625 71.78125 18.9375 73 
Q 24.125 74.21875 28.421875 74.21875 
Q 39.75 74.21875 46.484375 68.546875 
Q 53.21875 62.890625 53.21875 53.421875 
Q 53.21875 48.921875 51.53125 44.890625 
Q 49.859375 40.875 45.40625 35.40625 
Q 44.1875 33.984375 37.640625 27.21875 
Q 31.109375 20.453125 19.1875 8.296875 
z
" id="DejaVuSans-50"/>
      </defs>
      <g transform="translate(60.589848 322.182437)scale(0.1 -0.1)">
       <use xlink:href="#DejaVuSans-48"/>
       <use x="63.623047" xlink:href="#DejaVuSans-46"/>
       <use x="95.410156" xlink:href="#DejaVuSans-50"/>
      </g>
     </g>
    </g>
    <g id="xtick_2">
     <g id="line2d_2">
      <g>
       <use style="stroke:#000000;stroke-width:0.8;" x="115.586379" xlink:href="#m7ad9f21d76" y="307.584"/>
      </g>
     </g>
     <g id="text_2">
      <!-- 0.4 -->
      <defs>
       <path d="M 37.796875 64.3125 
L 12.890625 25.390625 
L 37.796875 25.390625 
z
M 35.203125 72.90625 
L 47.609375 72.90625 
L 47.609375 25.390625 
L 58.015625 25.390625 
L 58.015625 17.1875 
L 47.609375 17.1875 
L 47.609375 0 
L 37.796875 0 
L 37.796875 17.1875 
L 4.890625 17.1875 
L 4.890625 26.703125 
z
" id="DejaVuSans-52"/>
      </defs>
      <g transform="translate(107.634817 322.182437)scale(0.1 -0.1)">
       <use xlink:href="#DejaVuSans-48"/>
       <use x="63.623047" xlink:href="#DejaVuSans-46"/>
       <use x="95.410156" xlink:href="#DejaVuSans-52"/>
      </g>
     </g>
    </g>
    <g id="xtick_3">
     <g id="line2d_3">
      <g>
       <use style="stroke:#000000;stroke-width:0.8;" x="162.631348" xlink:href="#m7ad9f21d76" y="307.584"/>
      </g>
     </g>
     <g id="text_3">
      <!-- 0.6 -->
      <defs>
       <path d="M 33.015625 40.375 
Q 26.375 40.375 22.484375 35.828125 
Q 18.609375 31.296875 18.609375 23.390625 
Q 18.609375 15.53125 22.484375 10.953125 
Q 26.375 6.390625 33.015625 6.390625 
Q 39.65625 6.390625 43.53125 10.953125 
Q 47.40625 15.53125 47.40625 23.390625 
Q 47.40625 31.296875 43.53125 35.828125 
Q 39.65625 40.375 33.015625 40.375 
z
M 52.59375 71.296875 
L 52.59375 62.3125 
Q 48.875 64.0625 45.09375 64.984375 
Q 41.3125 65.921875 37.59375 65.921875 
Q 27.828125 65.921875 22.671875 59.328125 
Q 17.53125 52.734375 16.796875 39.40625 
Q 19.671875 43.65625 24.015625 45.921875 
Q 28.375 48.1875 33.59375 48.1875 
Q 44.578125 48.1875 50.953125 41.515625 
Q 57.328125 34.859375 57.328125 23.390625 
Q 57.328125 12.15625 50.6875 5.359375 
Q 44.046875 -1.421875 33.015625 -1.421875 
Q 20.359375 -1.421875 13.671875 8.265625 
Q 6.984375 17.96875 6.984375 36.375 
Q 6.984375 53.65625 15.1875 63.9375 
Q 23.390625 74.21875 37.203125 74.21875 
Q 40.921875 74.21875 44.703125 73.484375 
Q 48.484375 72.75 52.59375 71.296875 
z
" id="DejaVuSans-54"/>
      </defs>
      <g transform="translate(154.679786 322.182437)scale(0.1 -0.1)">
       <use xlink:href="#DejaVuSans-48"/>
       <use x="63.623047" xlink:href="#DejaVuSans-46"/>
       <use x="95.410156" xlink:href="#DejaVuSans-54"/>
      </g>
     </g>
    </g>
    <g id="xtick_4">
     <g id="line2d_4">
      <g>
       <use style="stroke:#000000;stroke-width:0.8;" x="209.676317" xlink:href="#m7ad9f21d76" y="307.584"/>
      </g>
     </g>
     <g id="text_4">
      <!-- 0.8 -->
      <defs>
       <path d="M 31.78125 34.625 
Q 24.75 34.625 20.71875 30.859375 
Q 16.703125 27.09375 16.703125 20.515625 
Q 16.703125 13.921875 20.71875 10.15625 
Q 24.75 6.390625 31.78125 6.390625 
Q 38.8125 6.390625 42.859375 10.171875 
Q 46.921875 13.96875 46.921875 20.515625 
Q 46.921875 27.09375 42.890625 30.859375 
Q 38.875 34.625 31.78125 34.625 
z
M 21.921875 38.8125 
Q 15.578125 40.375 12.03125 44.71875 
Q 8.5 49.078125 8.5 55.328125 
Q 8.5 64.0625 14.71875 69.140625 
Q 20.953125 74.21875 31.78125 74.21875 
Q 42.671875 74.21875 48.875 69.140625 
Q 55.078125 64.0625 55.078125 55.328125 
Q 55.078125 49.078125 51.53125 44.71875 
Q 48 40.375 41.703125 38.8125 
Q 48.828125 37.15625 52.796875 32.3125 
Q 56.78125 27.484375 56.78125 20.515625 
Q 56.78125 9.90625 50.3125 4.234375 
Q 43.84375 -1.421875 31.78125 -1.421875 
Q 19.734375 -1.421875 13.25 4.234375 
Q 6.78125 9.90625 6.78125 20.515625 
Q 6.78125 27.484375 10.78125 32.3125 
Q 14.796875 37.15625 21.921875 38.8125 
z
M 18.3125 54.390625 
Q 18.3125 48.734375 21.84375 45.5625 
Q 25.390625 42.390625 31.78125 42.390625 
Q 38.140625 42.390625 41.71875 45.5625 
Q 45.3125 48.734375 45.3125 54.390625 
Q 45.3125 60.0625 41.71875 63.234375 
Q 38.140625 66.40625 31.78125 66.40625 
Q 25.390625 66.40625 21.84375 63.234375 
Q 18.3125 60.0625 18.3125 54.390625 
z
" id="DejaVuSans-56"/>
      </defs>
      <g transform="translate(201.724755 322.182437)scale(0.1 -0.1)">
       <use xlink:href="#DejaVuSans-48"/>
       <use x="63.623047" xlink:href="#DejaVuSans-46"/>
       <use x="95.410156" xlink:href="#DejaVuSans-56"/>
      </g>
     </g>
    </g>
    <g id="xtick_5">
     <g id="line2d_5">
      <g>
       <use style="stroke:#000000;stroke-width:0.8;" x="256.721286" xlink:href="#m7ad9f21d76" y="307.584"/>
      </g>
     </g>
     <g id="text_5">
      <!-- 1.0 -->
      <defs>
       <path d="M 12.40625 8.296875 
L 28.515625 8.296875 
L 28.515625 63.921875 
L 10.984375 60.40625 
L 10.984375 69.390625 
L 28.421875 72.90625 
L 38.28125 72.90625 
L 38.28125 8.296875 
L 54.390625 8.296875 
L 54.390625 0 
L 12.40625 0 
z
" id="DejaVuSans-49"/>
      </defs>
      <g transform="translate(248.769723 322.182437)scale(0.1 -0.1)">
       <use xlink:href="#DejaVuSans-49"/>
       <use x="63.623047" xlink:href="#DejaVuSans-46"/>
       <use x="95.410156" xlink:href="#DejaVuSans-48"/>
      </g>
     </g>
    </g>
    <g id="xtick_6">
     <g id="line2d_6">
      <g>
       <use style="stroke:#000000;stroke-width:0.8;" x="303.766255" xlink:href="#m7ad9f21d76" y="307.584"/>
      </g>
     </g>
     <g id="text_6">
      <!-- 1.2 -->
      <g transform="translate(295.814692 322.182437)scale(0.1 -0.1)">
       <use xlink:href="#DejaVuSans-49"/>
       <use x="63.623047" xlink:href="#DejaVuSans-46"/>
       <use x="95.410156" xlink:href="#DejaVuSans-50"/>
      </g>
     </g>
    </g>
    <g id="xtick_7">
     <g id="line2d_7">
      <g>
       <use style="stroke:#000000;stroke-width:0.8;" x="350.811224" xlink:href="#m7ad9f21d76" y="307.584"/>
      </g>
     </g>
     <g id="text_7">
      <!-- 1.4 -->
      <g transform="translate(342.859661 322.182437)scale(0.1 -0.1)">
       <use xlink:href="#DejaVuSans-49"/>
       <use x="63.623047" xlink:href="#DejaVuSans-46"/>
       <use x="95.410156" xlink:href="#DejaVuSans-52"/>
      </g>
     </g>
    </g>
    <g id="xtick_8">
     <g id="line2d_8">
      <g>
       <use style="stroke:#000000;stroke-width:0.8;" x="397.856193" xlink:href="#m7ad9f21d76" y="307.584"/>
      </g>
     </g>
     <g id="text_8">
      <!-- 1.6 -->
      <g transform="translate(389.90463 322.182437)scale(0.1 -0.1)">
       <use xlink:href="#DejaVuSans-49"/>
       <use x="63.623047" xlink:href="#DejaVuSans-46"/>
       <use x="95.410156" xlink:href="#DejaVuSans-54"/>
      </g>
     </g>
    </g>
    <g id="text_9">
     <!-- Meas_Freq -->
     <defs>
      <path d="M 9.8125 72.90625 
L 24.515625 72.90625 
L 43.109375 23.296875 
L 61.8125 72.90625 
L 76.515625 72.90625 
L 76.515625 0 
L 66.890625 0 
L 66.890625 64.015625 
L 48.09375 14.015625 
L 38.1875 14.015625 
L 19.390625 64.015625 
L 19.390625 0 
L 9.8125 0 
z
" id="DejaVuSans-77"/>
      <path d="M 56.203125 29.59375 
L 56.203125 25.203125 
L 14.890625 25.203125 
Q 15.484375 15.921875 20.484375 11.0625 
Q 25.484375 6.203125 34.421875 6.203125 
Q 39.59375 6.203125 44.453125 7.46875 
Q 49.3125 8.734375 54.109375 11.28125 
L 54.109375 2.78125 
Q 49.265625 0.734375 44.1875 -0.34375 
Q 39.109375 -1.421875 33.890625 -1.421875 
Q 20.796875 -1.421875 13.15625 6.1875 
Q 5.515625 13.8125 5.515625 26.8125 
Q 5.515625 40.234375 12.765625 48.109375 
Q 20.015625 56 32.328125 56 
Q 43.359375 56 49.78125 48.890625 
Q 56.203125 41.796875 56.203125 29.59375 
z
M 47.21875 32.234375 
Q 47.125 39.59375 43.09375 43.984375 
Q 39.0625 48.390625 32.421875 48.390625 
Q 24.90625 48.390625 20.390625 44.140625 
Q 15.875 39.890625 15.1875 32.171875 
z
" id="DejaVuSans-101"/>
      <path d="M 34.28125 27.484375 
Q 23.390625 27.484375 19.1875 25 
Q 14.984375 22.515625 14.984375 16.5 
Q 14.984375 11.71875 18.140625 8.90625 
Q 21.296875 6.109375 26.703125 6.109375 
Q 34.1875 6.109375 38.703125 11.40625 
Q 43.21875 16.703125 43.21875 25.484375 
L 43.21875 27.484375 
z
M 52.203125 31.203125 
L 52.203125 0 
L 43.21875 0 
L 43.21875 8.296875 
Q 40.140625 3.328125 35.546875 0.953125 
Q 30.953125 -1.421875 24.3125 -1.421875 
Q 15.921875 -1.421875 10.953125 3.296875 
Q 6 8.015625 6 15.921875 
Q 6 25.140625 12.171875 29.828125 
Q 18.359375 34.515625 30.609375 34.515625 
L 43.21875 34.515625 
L 43.21875 35.40625 
Q 43.21875 41.609375 39.140625 45 
Q 35.0625 48.390625 27.6875 48.390625 
Q 23 48.390625 18.546875 47.265625 
Q 14.109375 46.140625 10.015625 43.890625 
L 10.015625 52.203125 
Q 14.9375 54.109375 19.578125 55.046875 
Q 24.21875 56 28.609375 56 
Q 40.484375 56 46.34375 49.84375 
Q 52.203125 43.703125 52.203125 31.203125 
z
" id="DejaVuSans-97"/>
      <path d="M 44.28125 53.078125 
L 44.28125 44.578125 
Q 40.484375 46.53125 36.375 47.5 
Q 32.28125 48.484375 27.875 48.484375 
Q 21.1875 48.484375 17.84375 46.4375 
Q 14.5 44.390625 14.5 40.28125 
Q 14.5 37.15625 16.890625 35.375 
Q 19.28125 33.59375 26.515625 31.984375 
L 29.59375 31.296875 
Q 39.15625 29.25 43.1875 25.515625 
Q 47.21875 21.78125 47.21875 15.09375 
Q 47.21875 7.46875 41.1875 3.015625 
Q 35.15625 -1.421875 24.609375 -1.421875 
Q 20.21875 -1.421875 15.453125 -0.5625 
Q 10.6875 0.296875 5.421875 2 
L 5.421875 11.28125 
Q 10.40625 8.6875 15.234375 7.390625 
Q 20.0625 6.109375 24.8125 6.109375 
Q 31.15625 6.109375 34.5625 8.28125 
Q 37.984375 10.453125 37.984375 14.40625 
Q 37.984375 18.0625 35.515625 20.015625 
Q 33.0625 21.96875 24.703125 23.78125 
L 21.578125 24.515625 
Q 13.234375 26.265625 9.515625 29.90625 
Q 5.8125 33.546875 5.8125 39.890625 
Q 5.8125 47.609375 11.28125 51.796875 
Q 16.75 56 26.8125 56 
Q 31.78125 56 36.171875 55.265625 
Q 40.578125 54.546875 44.28125 53.078125 
z
" id="DejaVuSans-115"/>
      <path d="M 50.984375 -16.609375 
L 50.984375 -23.578125 
L -0.984375 -23.578125 
L -0.984375 -16.609375 
z
" id="DejaVuSans-95"/>
      <path d="M 9.8125 72.90625 
L 51.703125 72.90625 
L 51.703125 64.59375 
L 19.671875 64.59375 
L 19.671875 43.109375 
L 48.578125 43.109375 
L 48.578125 34.8125 
L 19.671875 34.8125 
L 19.671875 0 
L 9.8125 0 
z
" id="DejaVuSans-70"/>
      <path d="M 41.109375 46.296875 
Q 39.59375 47.171875 37.8125 47.578125 
Q 36.03125 48 33.890625 48 
Q 26.265625 48 22.1875 43.046875 
Q 18.109375 38.09375 18.109375 28.8125 
L 18.109375 0 
L 9.078125 0 
L 9.078125 54.6875 
L 18.109375 54.6875 
L 18.109375 46.1875 
Q 20.953125 51.171875 25.484375 53.578125 
Q 30.03125 56 36.53125 56 
Q 37.453125 56 38.578125 55.875 
Q 39.703125 55.765625 41.0625 55.515625 
z
" id="DejaVuSans-114"/>
      <path d="M 14.796875 27.296875 
Q 14.796875 17.390625 18.875 11.75 
Q 22.953125 6.109375 30.078125 6.109375 
Q 37.203125 6.109375 41.296875 11.75 
Q 45.40625 17.390625 45.40625 27.296875 
Q 45.40625 37.203125 41.296875 42.84375 
Q 37.203125 48.484375 30.078125 48.484375 
Q 22.953125 48.484375 18.875 42.84375 
Q 14.796875 37.203125 14.796875 27.296875 
z
M 45.40625 8.203125 
Q 42.578125 3.328125 38.25 0.953125 
Q 33.9375 -1.421875 27.875 -1.421875 
Q 17.96875 -1.421875 11.734375 6.484375 
Q 5.515625 14.40625 5.515625 27.296875 
Q 5.515625 40.1875 11.734375 48.09375 
Q 17.96875 56 27.875 56 
Q 33.9375 56 38.25 53.625 
Q 42.578125 51.265625 45.40625 46.390625 
L 45.40625 54.6875 
L 54.390625 54.6875 
L 54.390625 -20.796875 
L 45.40625 -20.796875 
z
" id="DejaVuSans-113"/>
     </defs>
     <g transform="translate(209.425625 335.582437)scale(0.1 -0.1)">
      <use xlink:href="#DejaVuSans-77"/>
      <use x="86.279297" xlink:href="#DejaVuSans-101"/>
      <use x="147.802734" xlink:href="#DejaVuSans-97"/>
      <use x="209.082031" xlink:href="#DejaVuSans-115"/>
      <use x="261.181641" xlink:href="#DejaVuSans-95"/>
      <use x="311.181641" xlink:href="#DejaVuSans-70"/>
      <use x="368.591797" xlink:href="#DejaVuSans-114"/>
      <use x="409.673828" xlink:href="#DejaVuSans-101"/>
      <use x="471.197266" xlink:href="#DejaVuSans-113"/>
     </g>
    </g>
    <g id="text_10">
     <!-- 1e8 -->
     <g transform="translate(395.841875 334.860562)scale(0.1 -0.1)">
      <use xlink:href="#DejaVuSans-49"/>
      <use x="63.623047" xlink:href="#DejaVuSans-101"/>
      <use x="125.146484" xlink:href="#DejaVuSans-56"/>
     </g>
    </g>
   </g>
   <g id="matplotlib.axis_2">
    <g id="ytick_1">
     <g id="line2d_9">
      <defs>
       <path d="M 0 0 
L -3.5 0 
" id="me6d0512c34" style="stroke:#000000;stroke-width:0.8;"/>
      </defs>
      <g>
       <use style="stroke:#000000;stroke-width:0.8;" x="57.6" xlink:href="#me6d0512c34" y="301.555511"/>
      </g>
     </g>
     <g id="text_11">
      <!-- 0.4 -->
      <g transform="translate(34.696875 305.35473)scale(0.1 -0.1)">
       <use xlink:href="#DejaVuSans-48"/>
       <use x="63.623047" xlink:href="#DejaVuSans-46"/>
       <use x="95.410156" xlink:href="#DejaVuSans-52"/>
      </g>
     </g>
    </g>
    <g id="ytick_2">
     <g id="line2d_10">
      <g>
       <use style="stroke:#000000;stroke-width:0.8;" x="57.6" xlink:href="#me6d0512c34" y="258.853081"/>
      </g>
     </g>
     <g id="text_12">
      <!-- 0.5 -->
      <defs>
       <path d="M 10.796875 72.90625 
L 49.515625 72.90625 
L 49.515625 64.59375 
L 19.828125 64.59375 
L 19.828125 46.734375 
Q 21.96875 47.46875 24.109375 47.828125 
Q 26.265625 48.1875 28.421875 48.1875 
Q 40.625 48.1875 47.75 41.5 
Q 54.890625 34.8125 54.890625 23.390625 
Q 54.890625 11.625 47.5625 5.09375 
Q 40.234375 -1.421875 26.90625 -1.421875 
Q 22.3125 -1.421875 17.546875 -0.640625 
Q 12.796875 0.140625 7.71875 1.703125 
L 7.71875 11.625 
Q 12.109375 9.234375 16.796875 8.0625 
Q 21.484375 6.890625 26.703125 6.890625 
Q 35.15625 6.890625 40.078125 11.328125 
Q 45.015625 15.765625 45.015625 23.390625 
Q 45.015625 31 40.078125 35.4375 
Q 35.15625 39.890625 26.703125 39.890625 
Q 22.75 39.890625 18.8125 39.015625 
Q 14.890625 38.140625 10.796875 36.28125 
z
" id="DejaVuSans-53"/>
      </defs>
      <g transform="translate(34.696875 262.652299)scale(0.1 -0.1)">
       <use xlink:href="#DejaVuSans-48"/>
       <use x="63.623047" xlink:href="#DejaVuSans-46"/>
       <use x="95.410156" xlink:href="#DejaVuSans-53"/>
      </g>
     </g>
    </g>
    <g id="ytick_3">
     <g id="line2d_11">
      <g>
       <use style="stroke:#000000;stroke-width:0.8;" x="57.6" xlink:href="#me6d0512c34" y="216.15065"/>
      </g>
     </g>
     <g id="text_13">
      <!-- 0.6 -->
      <g transform="translate(34.696875 219.949869)scale(0.1 -0.1)">
       <use xlink:href="#DejaVuSans-48"/>
       <use x="63.623047" xlink:href="#DejaVuSans-46"/>
       <use x="95.410156" xlink:href="#DejaVuSans-54"/>
      </g>
     </g>
    </g>
    <g id="ytick_4">
     <g id="line2d_12">
      <g>
       <use style="stroke:#000000;stroke-width:0.8;" x="57.6" xlink:href="#me6d0512c34" y="173.448219"/>
      </g>
     </g>
     <g id="text_14">
      <!-- 0.7 -->
      <defs>
       <path d="M 8.203125 72.90625 
L 55.078125 72.90625 
L 55.078125 68.703125 
L 28.609375 0 
L 18.3125 0 
L 43.21875 64.59375 
L 8.203125 64.59375 
z
" id="DejaVuSans-55"/>
      </defs>
      <g transform="translate(34.696875 177.247438)scale(0.1 -0.1)">
       <use xlink:href="#DejaVuSans-48"/>
       <use x="63.623047" xlink:href="#DejaVuSans-46"/>
       <use x="95.410156" xlink:href="#DejaVuSans-55"/>
      </g>
     </g>
    </g>
    <g id="ytick_5">
     <g id="line2d_13">
      <g>
       <use style="stroke:#000000;stroke-width:0.8;" x="57.6" xlink:href="#me6d0512c34" y="130.745788"/>
      </g>
     </g>
     <g id="text_15">
      <!-- 0.8 -->
      <g transform="translate(34.696875 134.545007)scale(0.1 -0.1)">
       <use xlink:href="#DejaVuSans-48"/>
       <use x="63.623047" xlink:href="#DejaVuSans-46"/>
       <use x="95.410156" xlink:href="#DejaVuSans-56"/>
      </g>
     </g>
    </g>
    <g id="ytick_6">
     <g id="line2d_14">
      <g>
       <use style="stroke:#000000;stroke-width:0.8;" x="57.6" xlink:href="#me6d0512c34" y="88.043358"/>
      </g>
     </g>
     <g id="text_16">
      <!-- 0.9 -->
      <defs>
       <path d="M 10.984375 1.515625 
L 10.984375 10.5 
Q 14.703125 8.734375 18.5 7.8125 
Q 22.3125 6.890625 25.984375 6.890625 
Q 35.75 6.890625 40.890625 13.453125 
Q 46.046875 20.015625 46.78125 33.40625 
Q 43.953125 29.203125 39.59375 26.953125 
Q 35.25 24.703125 29.984375 24.703125 
Q 19.046875 24.703125 12.671875 31.3125 
Q 6.296875 37.9375 6.296875 49.421875 
Q 6.296875 60.640625 12.9375 67.421875 
Q 19.578125 74.21875 30.609375 74.21875 
Q 43.265625 74.21875 49.921875 64.515625 
Q 56.59375 54.828125 56.59375 36.375 
Q 56.59375 19.140625 48.40625 8.859375 
Q 40.234375 -1.421875 26.421875 -1.421875 
Q 22.703125 -1.421875 18.890625 -0.6875 
Q 15.09375 0.046875 10.984375 1.515625 
z
M 30.609375 32.421875 
Q 37.25 32.421875 41.125 36.953125 
Q 45.015625 41.5 45.015625 49.421875 
Q 45.015625 57.28125 41.125 61.84375 
Q 37.25 66.40625 30.609375 66.40625 
Q 23.96875 66.40625 20.09375 61.84375 
Q 16.21875 57.28125 16.21875 49.421875 
Q 16.21875 41.5 20.09375 36.953125 
Q 23.96875 32.421875 30.609375 32.421875 
z
" id="DejaVuSans-57"/>
      </defs>
      <g transform="translate(34.696875 91.842576)scale(0.1 -0.1)">
       <use xlink:href="#DejaVuSans-48"/>
       <use x="63.623047" xlink:href="#DejaVuSans-46"/>
       <use x="95.410156" xlink:href="#DejaVuSans-57"/>
      </g>
     </g>
    </g>
    <g id="ytick_7">
     <g id="line2d_15">
      <g>
       <use style="stroke:#000000;stroke-width:0.8;" x="57.6" xlink:href="#me6d0512c34" y="45.340927"/>
      </g>
     </g>
     <g id="text_17">
      <!-- 1.0 -->
      <g transform="translate(34.696875 49.140146)scale(0.1 -0.1)">
       <use xlink:href="#DejaVuSans-49"/>
       <use x="63.623047" xlink:href="#DejaVuSans-46"/>
       <use x="95.410156" xlink:href="#DejaVuSans-48"/>
      </g>
     </g>
    </g>
    <g id="text_18">
     <!-- Energy -->
     <defs>
      <path d="M 9.8125 72.90625 
L 55.90625 72.90625 
L 55.90625 64.59375 
L 19.671875 64.59375 
L 19.671875 43.015625 
L 54.390625 43.015625 
L 54.390625 34.71875 
L 19.671875 34.71875 
L 19.671875 8.296875 
L 56.78125 8.296875 
L 56.78125 0 
L 9.8125 0 
z
" id="DejaVuSans-69"/>
      <path d="M 54.890625 33.015625 
L 54.890625 0 
L 45.90625 0 
L 45.90625 32.71875 
Q 45.90625 40.484375 42.875 44.328125 
Q 39.84375 48.1875 33.796875 48.1875 
Q 26.515625 48.1875 22.3125 43.546875 
Q 18.109375 38.921875 18.109375 30.90625 
L 18.109375 0 
L 9.078125 0 
L 9.078125 54.6875 
L 18.109375 54.6875 
L 18.109375 46.1875 
Q 21.34375 51.125 25.703125 53.5625 
Q 30.078125 56 35.796875 56 
Q 45.21875 56 50.046875 50.171875 
Q 54.890625 44.34375 54.890625 33.015625 
z
" id="DejaVuSans-110"/>
      <path d="M 45.40625 27.984375 
Q 45.40625 37.75 41.375 43.109375 
Q 37.359375 48.484375 30.078125 48.484375 
Q 22.859375 48.484375 18.828125 43.109375 
Q 14.796875 37.75 14.796875 27.984375 
Q 14.796875 18.265625 18.828125 12.890625 
Q 22.859375 7.515625 30.078125 7.515625 
Q 37.359375 7.515625 41.375 12.890625 
Q 45.40625 18.265625 45.40625 27.984375 
z
M 54.390625 6.78125 
Q 54.390625 -7.171875 48.1875 -13.984375 
Q 42 -20.796875 29.203125 -20.796875 
Q 24.46875 -20.796875 20.265625 -20.09375 
Q 16.0625 -19.390625 12.109375 -17.921875 
L 12.109375 -9.1875 
Q 16.0625 -11.328125 19.921875 -12.34375 
Q 23.78125 -13.375 27.78125 -13.375 
Q 36.625 -13.375 41.015625 -8.765625 
Q 45.40625 -4.15625 45.40625 5.171875 
L 45.40625 9.625 
Q 42.625 4.78125 38.28125 2.390625 
Q 33.9375 0 27.875 0 
Q 17.828125 0 11.671875 7.65625 
Q 5.515625 15.328125 5.515625 27.984375 
Q 5.515625 40.671875 11.671875 48.328125 
Q 17.828125 56 27.875 56 
Q 33.9375 56 38.28125 53.609375 
Q 42.625 51.21875 45.40625 46.390625 
L 45.40625 54.6875 
L 54.390625 54.6875 
z
" id="DejaVuSans-103"/>
      <path d="M 32.171875 -5.078125 
Q 28.375 -14.84375 24.75 -17.8125 
Q 21.140625 -20.796875 15.09375 -20.796875 
L 7.90625 -20.796875 
L 7.90625 -13.28125 
L 13.1875 -13.28125 
Q 16.890625 -13.28125 18.9375 -11.515625 
Q 21 -9.765625 23.484375 -3.21875 
L 25.09375 0.875 
L 2.984375 54.6875 
L 12.5 54.6875 
L 29.59375 11.921875 
L 46.6875 54.6875 
L 56.203125 54.6875 
z
" id="DejaVuSans-121"/>
     </defs>
     <g transform="translate(28.617187 192.120969)rotate(-90)scale(0.1 -0.1)">
      <use xlink:href="#DejaVuSans-69"/>
      <use x="63.183594" xlink:href="#DejaVuSans-110"/>
      <use x="126.5625" xlink:href="#DejaVuSans-101"/>
      <use x="188.085938" xlink:href="#DejaVuSans-114"/>
      <use x="229.183594" xlink:href="#DejaVuSans-103"/>
      <use x="292.660156" xlink:href="#DejaVuSans-121"/>
     </g>
    </g>
   </g>
   <g id="patch_3">
    <path d="M 57.6 307.584 
L 57.6 41.472 
" style="fill:none;stroke:#000000;stroke-linecap:square;stroke-linejoin:miter;stroke-width:0.8;"/>
   </g>
   <g id="patch_4">
    <path d="M 414.72 307.584 
L 414.72 41.472 
" style="fill:none;stroke:#000000;stroke-linecap:square;stroke-linejoin:miter;stroke-width:0.8;"/>
   </g>
   <g id="patch_5">
    <path d="M 57.6 307.584 
L 414.72 307.584 
" style="fill:none;stroke:#000000;stroke-linecap:square;stroke-linejoin:miter;stroke-width:0.8;"/>
   </g>
   <g id="patch_6">
    <path d="M 57.6 41.472 
L 414.72 41.472 
" style="fill:none;stroke:#000000;stroke-linecap:square;stroke-linejoin:miter;stroke-width:0.8;"/>
   </g>
   <g id="text_19">
    <!-- out_fsweep_long_1V_01.csv -->
    <defs>
     <path d="M 30.609375 48.390625 
Q 23.390625 48.390625 19.1875 42.75 
Q 14.984375 37.109375 14.984375 27.296875 
Q 14.984375 17.484375 19.15625 11.84375 
Q 23.34375 6.203125 30.609375 6.203125 
Q 37.796875 6.203125 41.984375 11.859375 
Q 46.1875 17.53125 46.1875 27.296875 
Q 46.1875 37.015625 41.984375 42.703125 
Q 37.796875 48.390625 30.609375 48.390625 
z
M 30.609375 56 
Q 42.328125 56 49.015625 48.375 
Q 55.71875 40.765625 55.71875 27.296875 
Q 55.71875 13.875 49.015625 6.21875 
Q 42.328125 -1.421875 30.609375 -1.421875 
Q 18.84375 -1.421875 12.171875 6.21875 
Q 5.515625 13.875 5.515625 27.296875 
Q 5.515625 40.765625 12.171875 48.375 
Q 18.84375 56 30.609375 56 
z
" id="DejaVuSans-111"/>
     <path d="M 8.5 21.578125 
L 8.5 54.6875 
L 17.484375 54.6875 
L 17.484375 21.921875 
Q 17.484375 14.15625 20.5 10.265625 
Q 23.53125 6.390625 29.59375 6.390625 
Q 36.859375 6.390625 41.078125 11.03125 
Q 45.3125 15.671875 45.3125 23.6875 
L 45.3125 54.6875 
L 54.296875 54.6875 
L 54.296875 0 
L 45.3125 0 
L 45.3125 8.40625 
Q 42.046875 3.421875 37.71875 1 
Q 33.40625 -1.421875 27.6875 -1.421875 
Q 18.265625 -1.421875 13.375 4.4375 
Q 8.5 10.296875 8.5 21.578125 
z
M 31.109375 56 
z
" id="DejaVuSans-117"/>
     <path d="M 18.3125 70.21875 
L 18.3125 54.6875 
L 36.8125 54.6875 
L 36.8125 47.703125 
L 18.3125 47.703125 
L 18.3125 18.015625 
Q 18.3125 11.328125 20.140625 9.421875 
Q 21.96875 7.515625 27.59375 7.515625 
L 36.8125 7.515625 
L 36.8125 0 
L 27.59375 0 
Q 17.1875 0 13.234375 3.875 
Q 9.28125 7.765625 9.28125 18.015625 
L 9.28125 47.703125 
L 2.6875 47.703125 
L 2.6875 54.6875 
L 9.28125 54.6875 
L 9.28125 70.21875 
z
" id="DejaVuSans-116"/>
     <path d="M 37.109375 75.984375 
L 37.109375 68.5 
L 28.515625 68.5 
Q 23.6875 68.5 21.796875 66.546875 
Q 19.921875 64.59375 19.921875 59.515625 
L 19.921875 54.6875 
L 34.71875 54.6875 
L 34.71875 47.703125 
L 19.921875 47.703125 
L 19.921875 0 
L 10.890625 0 
L 10.890625 47.703125 
L 2.296875 47.703125 
L 2.296875 54.6875 
L 10.890625 54.6875 
L 10.890625 58.5 
Q 10.890625 67.625 15.140625 71.796875 
Q 19.390625 75.984375 28.609375 75.984375 
z
" id="DejaVuSans-102"/>
     <path d="M 4.203125 54.6875 
L 13.1875 54.6875 
L 24.421875 12.015625 
L 35.59375 54.6875 
L 46.1875 54.6875 
L 57.421875 12.015625 
L 68.609375 54.6875 
L 77.59375 54.6875 
L 63.28125 0 
L 52.6875 0 
L 40.921875 44.828125 
L 29.109375 0 
L 18.5 0 
z
" id="DejaVuSans-119"/>
     <path d="M 18.109375 8.203125 
L 18.109375 -20.796875 
L 9.078125 -20.796875 
L 9.078125 54.6875 
L 18.109375 54.6875 
L 18.109375 46.390625 
Q 20.953125 51.265625 25.265625 53.625 
Q 29.59375 56 35.59375 56 
Q 45.5625 56 51.78125 48.09375 
Q 58.015625 40.1875 58.015625 27.296875 
Q 58.015625 14.40625 51.78125 6.484375 
Q 45.5625 -1.421875 35.59375 -1.421875 
Q 29.59375 -1.421875 25.265625 0.953125 
Q 20.953125 3.328125 18.109375 8.203125 
z
M 48.6875 27.296875 
Q 48.6875 37.203125 44.609375 42.84375 
Q 40.53125 48.484375 33.40625 48.484375 
Q 26.265625 48.484375 22.1875 42.84375 
Q 18.109375 37.203125 18.109375 27.296875 
Q 18.109375 17.390625 22.1875 11.75 
Q 26.265625 6.109375 33.40625 6.109375 
Q 40.53125 6.109375 44.609375 11.75 
Q 48.6875 17.390625 48.6875 27.296875 
z
" id="DejaVuSans-112"/>
     <path d="M 9.421875 75.984375 
L 18.40625 75.984375 
L 18.40625 0 
L 9.421875 0 
z
" id="DejaVuSans-108"/>
     <path d="M 28.609375 0 
L 0.78125 72.90625 
L 11.078125 72.90625 
L 34.1875 11.53125 
L 57.328125 72.90625 
L 67.578125 72.90625 
L 39.796875 0 
z
" id="DejaVuSans-86"/>
     <path d="M 48.78125 52.59375 
L 48.78125 44.1875 
Q 44.96875 46.296875 41.140625 47.34375 
Q 37.3125 48.390625 33.40625 48.390625 
Q 24.65625 48.390625 19.8125 42.84375 
Q 14.984375 37.3125 14.984375 27.296875 
Q 14.984375 17.28125 19.8125 11.734375 
Q 24.65625 6.203125 33.40625 6.203125 
Q 37.3125 6.203125 41.140625 7.25 
Q 44.96875 8.296875 48.78125 10.40625 
L 48.78125 2.09375 
Q 45.015625 0.34375 40.984375 -0.53125 
Q 36.96875 -1.421875 32.421875 -1.421875 
Q 20.0625 -1.421875 12.78125 6.34375 
Q 5.515625 14.109375 5.515625 27.296875 
Q 5.515625 40.671875 12.859375 48.328125 
Q 20.21875 56 33.015625 56 
Q 37.15625 56 41.109375 55.140625 
Q 45.0625 54.296875 48.78125 52.59375 
z
" id="DejaVuSans-99"/>
     <path d="M 2.984375 54.6875 
L 12.5 54.6875 
L 29.59375 8.796875 
L 46.6875 54.6875 
L 56.203125 54.6875 
L 35.6875 0 
L 23.484375 0 
z
" id="DejaVuSans-118"/>
    </defs>
    <g transform="translate(152.607188 35.472)scale(0.12 -0.12)">
     <use xlink:href="#DejaVuSans-111"/>
     <use x="61.181641" xlink:href="#DejaVuSans-117"/>
     <use x="124.560547" xlink:href="#DejaVuSans-116"/>
     <use x="163.769531" xlink:href="#DejaVuSans-95"/>
     <use x="213.769531" xlink:href="#DejaVuSans-102"/>
     <use x="248.974609" xlink:href="#DejaVuSans-115"/>
     <use x="301.074219" xlink:href="#DejaVuSans-119"/>
     <use x="382.861328" xlink:href="#DejaVuSans-101"/>
     <use x="444.384766" xlink:href="#DejaVuSans-101"/>
     <use x="505.908203" xlink:href="#DejaVuSans-112"/>
     <use x="569.384766" xlink:href="#DejaVuSans-95"/>
     <use x="619.384766" xlink:href="#DejaVuSans-108"/>
     <use x="647.167969" xlink:href="#DejaVuSans-111"/>
     <use x="708.349609" xlink:href="#DejaVuSans-110"/>
     <use x="771.728516" xlink:href="#DejaVuSans-103"/>
     <use x="835.205078" xlink:href="#DejaVuSans-95"/>
     <use x="885.205078" xlink:href="#DejaVuSans-49"/>
     <use x="948.828125" xlink:href="#DejaVuSans-86"/>
     <use x="1017.236328" xlink:href="#DejaVuSans-95"/>
     <use x="1067.236328" xlink:href="#DejaVuSans-48"/>
     <use x="1130.859375" xlink:href="#DejaVuSans-49"/>
     <use x="1194.482422" xlink:href="#DejaVuSans-46"/>
     <use x="1226.269531" xlink:href="#DejaVuSans-99"/>
     <use x="1281.25" xlink:href="#DejaVuSans-115"/>
     <use x="1333.349609" xlink:href="#DejaVuSans-118"/>
    </g>
   </g>
  </g>
 </g>
 <defs>
  <clipPath id="pd059f40346">
   <rect height="266.112" width="357.12" x="57.6" y="41.472"/>
  </clipPath>
 </defs>
</svg>
