<?xml version="1.0" encoding="utf-8" standalone="no"?>
<!DOCTYPE svg PUBLIC "-//W3C//DTD SVG 1.1//EN"
  "http://www.w3.org/Graphics/SVG/1.1/DTD/svg11.dtd">
<!-- Created with matplotlib (https://matplotlib.org/) -->
<svg height="345.6pt" version="1.1" viewBox="0 0 460.8 345.6" width="460.8pt" xmlns="http://www.w3.org/2000/svg" xmlns:xlink="http://www.w3.org/1999/xlink">
 <defs>
  <style type="text/css">
*{stroke-linecap:butt;stroke-linejoin:round;}
  </style>
 </defs>
 <g id="figure_1">
  <g id="patch_1">
   <path d="M 0 345.6 
L 460.8 345.6 
L 460.8 0 
L 0 0 
z
" style="fill:#ffffff;"/>
  </g>
  <g id="axes_1">
   <g id="patch_2">
    <path d="M 57.6 307.584 
L 414.72 307.584 
L 414.72 41.472 
L 57.6 41.472 
z
" style="fill:#ffffff;"/>
   </g>
   <g id="PathCollection_1">
    <defs>
     <path d="M 0 1.118034 
C 0.296506 1.118034 0.580908 1.000231 0.790569 0.790569 
C 1.000231 0.580908 1.118034 0.296506 1.118034 0 
C 1.118034 -0.296506 1.000231 -0.580908 0.790569 -0.790569 
C 0.580908 -1.000231 0.296506 -1.118034 0 -1.118034 
C -0.296506 -1.118034 -0.580908 -1.000231 -0.790569 -0.790569 
C -1.000231 -0.580908 -1.118034 -0.296506 -1.118034 0 
C -1.118034 0.296506 -1.000231 0.580908 -0.790569 0.790569 
C -0.580908 1.000231 -0.296506 1.118034 0 1.118034 
z
" id="m02df4bd424" style="stroke:#1f77b4;"/>
    </defs>
    <g clip-path="url(#pa3cbb6a9e7)">
     <use style="fill:#1f77b4;stroke:#1f77b4;" x="73.832727" xlink:href="#m02df4bd424" y="128.572859"/>
     <use style="fill:#1f77b4;stroke:#1f77b4;" x="73.832727" xlink:href="#m02df4bd424" y="128.268713"/>
     <use style="fill:#1f77b4;stroke:#1f77b4;" x="74.026204" xlink:href="#m02df4bd424" y="129.168613"/>
     <use style="fill:#1f77b4;stroke:#1f77b4;" x="95.018468" xlink:href="#m02df4bd424" y="131.556985"/>
     <use style="fill:#1f77b4;stroke:#1f77b4;" x="95.598899" xlink:href="#m02df4bd424" y="131.920691"/>
     <use style="fill:#1f77b4;stroke:#1f77b4;" x="94.824991" xlink:href="#m02df4bd424" y="130.662526"/>
     <use style="fill:#1f77b4;stroke:#1f77b4;" x="99.371702" xlink:href="#m02df4bd424" y="129.315611"/>
     <use style="fill:#1f77b4;stroke:#1f77b4;" x="98.88801" xlink:href="#m02df4bd424" y="129.683733"/>
     <use style="fill:#1f77b4;stroke:#1f77b4;" x="99.274964" xlink:href="#m02df4bd424" y="129.377422"/>
     <use style="fill:#1f77b4;stroke:#1f77b4;" x="101.49995" xlink:href="#m02df4bd424" y="130.844439"/>
     <use style="fill:#1f77b4;stroke:#1f77b4;" x="101.693427" xlink:href="#m02df4bd424" y="131.315178"/>
     <use style="fill:#1f77b4;stroke:#1f77b4;" x="101.306473" xlink:href="#m02df4bd424" y="130.91341"/>
     <use style="fill:#1f77b4;stroke:#1f77b4;" x="104.498845" xlink:href="#m02df4bd424" y="129.547895"/>
     <use style="fill:#1f77b4;stroke:#1f77b4;" x="103.724937" xlink:href="#m02df4bd424" y="130.027219"/>
     <use style="fill:#1f77b4;stroke:#1f77b4;" x="104.498845" xlink:href="#m02df4bd424" y="129.871034"/>
     <use style="fill:#1f77b4;stroke:#1f77b4;" x="108.561864" xlink:href="#m02df4bd424" y="130.317055"/>
     <use style="fill:#1f77b4;stroke:#1f77b4;" x="108.658602" xlink:href="#m02df4bd424" y="130.547587"/>
     <use style="fill:#1f77b4;stroke:#1f77b4;" x="108.465125" xlink:href="#m02df4bd424" y="130.213949"/>
     <use style="fill:#1f77b4;stroke:#1f77b4;" x="110.399896" xlink:href="#m02df4bd424" y="129.035191"/>
     <use style="fill:#1f77b4;stroke:#1f77b4;" x="110.690112" xlink:href="#m02df4bd424" y="128.866276"/>
     <use style="fill:#1f77b4;stroke:#1f77b4;" x="111.077066" xlink:href="#m02df4bd424" y="129.21847"/>
     <use style="fill:#1f77b4;stroke:#1f77b4;" x="113.398791" xlink:href="#m02df4bd424" y="131.150252"/>
     <use style="fill:#1f77b4;stroke:#1f77b4;" x="113.979222" xlink:href="#m02df4bd424" y="131.17079"/>
     <use style="fill:#1f77b4;stroke:#1f77b4;" x="113.398791" xlink:href="#m02df4bd424" y="130.995401"/>
     <use style="fill:#1f77b4;stroke:#1f77b4;" x="117.365071" xlink:href="#m02df4bd424" y="131.773888"/>
     <use style="fill:#1f77b4;stroke:#1f77b4;" x="117.268332" xlink:href="#m02df4bd424" y="131.071278"/>
     <use style="fill:#1f77b4;stroke:#1f77b4;" x="116.494424" xlink:href="#m02df4bd424" y="131.849319"/>
     <use style="fill:#1f77b4;stroke:#1f77b4;" x="119.686796" xlink:href="#m02df4bd424" y="129.883206"/>
     <use style="fill:#1f77b4;stroke:#1f77b4;" x="120.363966" xlink:href="#m02df4bd424" y="130.101398"/>
     <use style="fill:#1f77b4;stroke:#1f77b4;" x="120.267227" xlink:href="#m02df4bd424" y="130.308841"/>
     <use style="fill:#1f77b4;stroke:#1f77b4;" x="121.137874" xlink:href="#m02df4bd424" y="130.403232"/>
     <use style="fill:#1f77b4;stroke:#1f77b4;" x="121.621567" xlink:href="#m02df4bd424" y="130.570475"/>
     <use style="fill:#1f77b4;stroke:#1f77b4;" x="121.621567" xlink:href="#m02df4bd424" y="130.889116"/>
     <use style="fill:#1f77b4;stroke:#1f77b4;" x="125.39437" xlink:href="#m02df4bd424" y="130.666591"/>
     <use style="fill:#1f77b4;stroke:#1f77b4;" x="124.910677" xlink:href="#m02df4bd424" y="130.854941"/>
     <use style="fill:#1f77b4;stroke:#1f77b4;" x="125.104154" xlink:href="#m02df4bd424" y="130.625274"/>
     <use style="fill:#1f77b4;stroke:#1f77b4;" x="129.167173" xlink:href="#m02df4bd424" y="130.767863"/>
     <use style="fill:#1f77b4;stroke:#1f77b4;" x="128.296526" xlink:href="#m02df4bd424" y="130.862534"/>
     <use style="fill:#1f77b4;stroke:#1f77b4;" x="127.812833" xlink:href="#m02df4bd424" y="130.889457"/>
     <use style="fill:#1f77b4;stroke:#1f77b4;" x="131.005205" xlink:href="#m02df4bd424" y="130.221587"/>
     <use style="fill:#1f77b4;stroke:#1f77b4;" x="131.295421" xlink:href="#m02df4bd424" y="130.924344"/>
     <use style="fill:#1f77b4;stroke:#1f77b4;" x="131.875852" xlink:href="#m02df4bd424" y="130.320433"/>
     <use style="fill:#1f77b4;stroke:#1f77b4;" x="133.036715" xlink:href="#m02df4bd424" y="130.346239"/>
     <use style="fill:#1f77b4;stroke:#1f77b4;" x="132.939976" xlink:href="#m02df4bd424" y="129.627786"/>
     <use style="fill:#1f77b4;stroke:#1f77b4;" x="133.423669" xlink:href="#m02df4bd424" y="129.801359"/>
     <use style="fill:#1f77b4;stroke:#1f77b4;" x="136.422564" xlink:href="#m02df4bd424" y="130.877071"/>
     <use style="fill:#1f77b4;stroke:#1f77b4;" x="136.132348" xlink:href="#m02df4bd424" y="131.430346"/>
     <use style="fill:#1f77b4;stroke:#1f77b4;" x="136.229087" xlink:href="#m02df4bd424" y="130.775012"/>
     <use style="fill:#1f77b4;stroke:#1f77b4;" x="139.227981" xlink:href="#m02df4bd424" y="130.059603"/>
     <use style="fill:#1f77b4;stroke:#1f77b4;" x="139.32472" xlink:href="#m02df4bd424" y="130.355017"/>
     <use style="fill:#1f77b4;stroke:#1f77b4;" x="140.679059" xlink:href="#m02df4bd424" y="130.204575"/>
     <use style="fill:#1f77b4;stroke:#1f77b4;" x="143.097523" xlink:href="#m02df4bd424" y="129.828545"/>
     <use style="fill:#1f77b4;stroke:#1f77b4;" x="144.258386" xlink:href="#m02df4bd424" y="129.752216"/>
     <use style="fill:#1f77b4;stroke:#1f77b4;" x="143.097523" xlink:href="#m02df4bd424" y="130.366912"/>
     <use style="fill:#1f77b4;stroke:#1f77b4;" x="145.709464" xlink:href="#m02df4bd424" y="130.191951"/>
     <use style="fill:#1f77b4;stroke:#1f77b4;" x="145.225771" xlink:href="#m02df4bd424" y="130.003446"/>
     <use style="fill:#1f77b4;stroke:#1f77b4;" x="145.999679" xlink:href="#m02df4bd424" y="129.706994"/>
     <use style="fill:#1f77b4;stroke:#1f77b4;" x="149.095313" xlink:href="#m02df4bd424" y="129.972945"/>
     <use style="fill:#1f77b4;stroke:#1f77b4;" x="149.28879" xlink:href="#m02df4bd424" y="130.639533"/>
     <use style="fill:#1f77b4;stroke:#1f77b4;" x="149.482267" xlink:href="#m02df4bd424" y="130.607003"/>
     <use style="fill:#1f77b4;stroke:#1f77b4;" x="151.803992" xlink:href="#m02df4bd424" y="129.787502"/>
     <use style="fill:#1f77b4;stroke:#1f77b4;" x="151.90073" xlink:href="#m02df4bd424" y="128.979244"/>
     <use style="fill:#1f77b4;stroke:#1f77b4;" x="151.320299" xlink:href="#m02df4bd424" y="129.422755"/>
     <use style="fill:#1f77b4;stroke:#1f77b4;" x="156.834396" xlink:href="#m02df4bd424" y="128.63968"/>
     <use style="fill:#1f77b4;stroke:#1f77b4;" x="156.834396" xlink:href="#m02df4bd424" y="129.173075"/>
     <use style="fill:#1f77b4;stroke:#1f77b4;" x="156.157226" xlink:href="#m02df4bd424" y="129.26747"/>
     <use style="fill:#1f77b4;stroke:#1f77b4;" x="158.382213" xlink:href="#m02df4bd424" y="129.884084"/>
     <use style="fill:#1f77b4;stroke:#1f77b4;" x="158.478951" xlink:href="#m02df4bd424" y="129.98383"/>
     <use style="fill:#1f77b4;stroke:#1f77b4;" x="159.059382" xlink:href="#m02df4bd424" y="129.826927"/>
     <use style="fill:#1f77b4;stroke:#1f77b4;" x="159.833291" xlink:href="#m02df4bd424" y="130.206692"/>
     <use style="fill:#1f77b4;stroke:#1f77b4;" x="159.833291" xlink:href="#m02df4bd424" y="130.752767"/>
     <use style="fill:#1f77b4;stroke:#1f77b4;" x="159.736552" xlink:href="#m02df4bd424" y="130.886391"/>
     <use style="fill:#1f77b4;stroke:#1f77b4;" x="161.477846" xlink:href="#m02df4bd424" y="129.043157"/>
     <use style="fill:#1f77b4;stroke:#1f77b4;" x="161.8648" xlink:href="#m02df4bd424" y="128.947568"/>
     <use style="fill:#1f77b4;stroke:#1f77b4;" x="161.574584" xlink:href="#m02df4bd424" y="129.053253"/>
     <use style="fill:#1f77b4;stroke:#1f77b4;" x="166.50825" xlink:href="#m02df4bd424" y="128.619772"/>
     <use style="fill:#1f77b4;stroke:#1f77b4;" x="166.024557" xlink:href="#m02df4bd424" y="129.032144"/>
     <use style="fill:#1f77b4;stroke:#1f77b4;" x="165.637603" xlink:href="#m02df4bd424" y="128.736129"/>
     <use style="fill:#1f77b4;stroke:#1f77b4;" x="169.507145" xlink:href="#m02df4bd424" y="127.670271"/>
     <use style="fill:#1f77b4;stroke:#1f77b4;" x="169.410406" xlink:href="#m02df4bd424" y="127.02588"/>
     <use style="fill:#1f77b4;stroke:#1f77b4;" x="170.764746" xlink:href="#m02df4bd424" y="127.936786"/>
     <use style="fill:#1f77b4;stroke:#1f77b4;" x="172.699517" xlink:href="#m02df4bd424" y="127.283665"/>
     <use style="fill:#1f77b4;stroke:#1f77b4;" x="173.086471" xlink:href="#m02df4bd424" y="126.855535"/>
     <use style="fill:#1f77b4;stroke:#1f77b4;" x="172.602778" xlink:href="#m02df4bd424" y="126.605788"/>
     <use style="fill:#1f77b4;stroke:#1f77b4;" x="176.085366" xlink:href="#m02df4bd424" y="126.697087"/>
     <use style="fill:#1f77b4;stroke:#1f77b4;" x="174.827765" xlink:href="#m02df4bd424" y="126.227397"/>
     <use style="fill:#1f77b4;stroke:#1f77b4;" x="176.665797" xlink:href="#m02df4bd424" y="126.726001"/>
     <use style="fill:#1f77b4;stroke:#1f77b4;" x="178.020137" xlink:href="#m02df4bd424" y="126.310147"/>
     <use style="fill:#1f77b4;stroke:#1f77b4;" x="178.116875" xlink:href="#m02df4bd424" y="126.471691"/>
     <use style="fill:#1f77b4;stroke:#1f77b4;" x="177.633182" xlink:href="#m02df4bd424" y="125.80587"/>
     <use style="fill:#1f77b4;stroke:#1f77b4;" x="180.922293" xlink:href="#m02df4bd424" y="126.195862"/>
     <use style="fill:#1f77b4;stroke:#1f77b4;" x="181.696201" xlink:href="#m02df4bd424" y="125.950726"/>
     <use style="fill:#1f77b4;stroke:#1f77b4;" x="181.889678" xlink:href="#m02df4bd424" y="126.227005"/>
     <use style="fill:#1f77b4;stroke:#1f77b4;" x="184.791834" xlink:href="#m02df4bd424" y="124.852006"/>
     <use style="fill:#1f77b4;stroke:#1f77b4;" x="185.178789" xlink:href="#m02df4bd424" y="125.311705"/>
     <use style="fill:#1f77b4;stroke:#1f77b4;" x="184.40488" xlink:href="#m02df4bd424" y="125.171365"/>
     <use style="fill:#1f77b4;stroke:#1f77b4;" x="188.661376" xlink:href="#m02df4bd424" y="125.031124"/>
     <use style="fill:#1f77b4;stroke:#1f77b4;" x="188.080945" xlink:href="#m02df4bd424" y="124.817393"/>
     <use style="fill:#1f77b4;stroke:#1f77b4;" x="188.467899" xlink:href="#m02df4bd424" y="125.091502"/>
     <use style="fill:#1f77b4;stroke:#1f77b4;" x="190.692885" xlink:href="#m02df4bd424" y="124.063479"/>
     <use style="fill:#1f77b4;stroke:#1f77b4;" x="190.886363" xlink:href="#m02df4bd424" y="124.374242"/>
     <use style="fill:#1f77b4;stroke:#1f77b4;" x="191.853748" xlink:href="#m02df4bd424" y="124.149346"/>
     <use style="fill:#1f77b4;stroke:#1f77b4;" x="192.530918" xlink:href="#m02df4bd424" y="124.936637"/>
     <use style="fill:#1f77b4;stroke:#1f77b4;" x="192.143964" xlink:href="#m02df4bd424" y="124.374698"/>
     <use style="fill:#1f77b4;stroke:#1f77b4;" x="191.466794" xlink:href="#m02df4bd424" y="124.300039"/>
     <use style="fill:#1f77b4;stroke:#1f77b4;" x="196.787414" xlink:href="#m02df4bd424" y="123.140181"/>
     <use style="fill:#1f77b4;stroke:#1f77b4;" x="196.787414" xlink:href="#m02df4bd424" y="123.458348"/>
     <use style="fill:#1f77b4;stroke:#1f77b4;" x="197.174368" xlink:href="#m02df4bd424" y="123.209674"/>
     <use style="fill:#1f77b4;stroke:#1f77b4;" x="198.818923" xlink:href="#m02df4bd424" y="121.895133"/>
     <use style="fill:#1f77b4;stroke:#1f77b4;" x="200.560217" xlink:href="#m02df4bd424" y="121.733239"/>
     <use style="fill:#1f77b4;stroke:#1f77b4;" x="199.302616" xlink:href="#m02df4bd424" y="121.784042"/>
     <use style="fill:#1f77b4;stroke:#1f77b4;" x="199.0124" xlink:href="#m02df4bd424" y="122.003702"/>
     <use style="fill:#1f77b4;stroke:#1f77b4;" x="198.818923" xlink:href="#m02df4bd424" y="122.187092"/>
     <use style="fill:#1f77b4;stroke:#1f77b4;" x="199.302616" xlink:href="#m02df4bd424" y="122.121303"/>
     <use style="fill:#1f77b4;stroke:#1f77b4;" x="205.106928" xlink:href="#m02df4bd424" y="120.926054"/>
     <use style="fill:#1f77b4;stroke:#1f77b4;" x="206.558006" xlink:href="#m02df4bd424" y="121.401247"/>
     <use style="fill:#1f77b4;stroke:#1f77b4;" x="204.33302" xlink:href="#m02df4bd424" y="120.860456"/>
     <use style="fill:#1f77b4;stroke:#1f77b4;" x="207.331915" xlink:href="#m02df4bd424" y="121.493702"/>
     <use style="fill:#1f77b4;stroke:#1f77b4;" x="206.654745" xlink:href="#m02df4bd424" y="121.297066"/>
     <use style="fill:#1f77b4;stroke:#1f77b4;" x="209.266685" xlink:href="#m02df4bd424" y="121.260943"/>
     <use style="fill:#1f77b4;stroke:#1f77b4;" x="211.007979" xlink:href="#m02df4bd424" y="121.868074"/>
     <use style="fill:#1f77b4;stroke:#1f77b4;" x="211.878626" xlink:href="#m02df4bd424" y="121.136913"/>
     <use style="fill:#1f77b4;stroke:#1f77b4;" x="210.717764" xlink:href="#m02df4bd424" y="121.704041"/>
     <use style="fill:#1f77b4;stroke:#1f77b4;" x="214.103613" xlink:href="#m02df4bd424" y="119.282933"/>
     <use style="fill:#1f77b4;stroke:#1f77b4;" x="215.554691" xlink:href="#m02df4bd424" y="118.95745"/>
     <use style="fill:#1f77b4;stroke:#1f77b4;" x="214.684044" xlink:href="#m02df4bd424" y="119.369191"/>
     <use style="fill:#1f77b4;stroke:#1f77b4;" x="218.456847" xlink:href="#m02df4bd424" y="119.205076"/>
     <use style="fill:#1f77b4;stroke:#1f77b4;" x="217.779677" xlink:href="#m02df4bd424" y="119.643131"/>
     <use style="fill:#1f77b4;stroke:#1f77b4;" x="217.682939" xlink:href="#m02df4bd424" y="119.451337"/>
     <use style="fill:#1f77b4;stroke:#1f77b4;" x="219.327494" xlink:href="#m02df4bd424" y="117.809421"/>
     <use style="fill:#1f77b4;stroke:#1f77b4;" x="220.972049" xlink:href="#m02df4bd424" y="118.948713"/>
     <use style="fill:#1f77b4;stroke:#1f77b4;" x="219.134017" xlink:href="#m02df4bd424" y="118.875004"/>
     <use style="fill:#1f77b4;stroke:#1f77b4;" x="222.810081" xlink:href="#m02df4bd424" y="117.918029"/>
     <use style="fill:#1f77b4;stroke:#1f77b4;" x="222.90682" xlink:href="#m02df4bd424" y="117.705396"/>
     <use style="fill:#1f77b4;stroke:#1f77b4;" x="223.487251" xlink:href="#m02df4bd424" y="117.907822"/>
     <use style="fill:#1f77b4;stroke:#1f77b4;" x="229.485041" xlink:href="#m02df4bd424" y="117.39438"/>
     <use style="fill:#1f77b4;stroke:#1f77b4;" x="228.711132" xlink:href="#m02df4bd424" y="118.259753"/>
     <use style="fill:#1f77b4;stroke:#1f77b4;" x="228.130701" xlink:href="#m02df4bd424" y="117.417641"/>
     <use style="fill:#1f77b4;stroke:#1f77b4;" x="227.55027" xlink:href="#m02df4bd424" y="116.711958"/>
     <use style="fill:#1f77b4;stroke:#1f77b4;" x="227.937224" xlink:href="#m02df4bd424" y="116.338623"/>
     <use style="fill:#1f77b4;stroke:#1f77b4;" x="228.904609" xlink:href="#m02df4bd424" y="116.239264"/>
     <use style="fill:#1f77b4;stroke:#1f77b4;" x="231.806766" xlink:href="#m02df4bd424" y="116.2074"/>
     <use style="fill:#1f77b4;stroke:#1f77b4;" x="231.710027" xlink:href="#m02df4bd424" y="116.789741"/>
     <use style="fill:#1f77b4;stroke:#1f77b4;" x="232.483935" xlink:href="#m02df4bd424" y="116.812032"/>
     <use style="fill:#1f77b4;stroke:#1f77b4;" x="234.128491" xlink:href="#m02df4bd424" y="116.200539"/>
     <use style="fill:#1f77b4;stroke:#1f77b4;" x="231.903504" xlink:href="#m02df4bd424" y="116.001383"/>
     <use style="fill:#1f77b4;stroke:#1f77b4;" x="231.51655" xlink:href="#m02df4bd424" y="116.034932"/>
     <use style="fill:#1f77b4;stroke:#1f77b4;" x="237.901294" xlink:href="#m02df4bd424" y="115.748147"/>
     <use style="fill:#1f77b4;stroke:#1f77b4;" x="237.417601" xlink:href="#m02df4bd424" y="115.42108"/>
     <use style="fill:#1f77b4;stroke:#1f77b4;" x="236.256739" xlink:href="#m02df4bd424" y="115.834967"/>
     <use style="fill:#1f77b4;stroke:#1f77b4;" x="239.739326" xlink:href="#m02df4bd424" y="116.541416"/>
     <use style="fill:#1f77b4;stroke:#1f77b4;" x="238.675202" xlink:href="#m02df4bd424" y="115.923608"/>
     <use style="fill:#1f77b4;stroke:#1f77b4;" x="239.158895" xlink:href="#m02df4bd424" y="116.227193"/>
     <use style="fill:#1f77b4;stroke:#1f77b4;" x="244.576253" xlink:href="#m02df4bd424" y="131.998956"/>
     <use style="fill:#1f77b4;stroke:#1f77b4;" x="242.061051" xlink:href="#m02df4bd424" y="134.212234"/>
     <use style="fill:#1f77b4;stroke:#1f77b4;" x="243.125175" xlink:href="#m02df4bd424" y="132.076792"/>
     <use style="fill:#1f77b4;stroke:#1f77b4;" x="245.930593" xlink:href="#m02df4bd424" y="141.903958"/>
     <use style="fill:#1f77b4;stroke:#1f77b4;" x="246.607762" xlink:href="#m02df4bd424" y="140.135085"/>
     <use style="fill:#1f77b4;stroke:#1f77b4;" x="246.994717" xlink:href="#m02df4bd424" y="142.534737"/>
     <use style="fill:#1f77b4;stroke:#1f77b4;" x="248.349056" xlink:href="#m02df4bd424" y="185.091688"/>
     <use style="fill:#1f77b4;stroke:#1f77b4;" x="246.607762" xlink:href="#m02df4bd424" y="175.178123"/>
     <use style="fill:#1f77b4;stroke:#1f77b4;" x="246.897978" xlink:href="#m02df4bd424" y="207.679584"/>
     <use style="fill:#1f77b4;stroke:#1f77b4;" x="253.185983" xlink:href="#m02df4bd424" y="171.072832"/>
     <use style="fill:#1f77b4;stroke:#1f77b4;" x="254.346846" xlink:href="#m02df4bd424" y="172.840541"/>
     <use style="fill:#1f77b4;stroke:#1f77b4;" x="253.282722" xlink:href="#m02df4bd424" y="171.514211"/>
     <use style="fill:#1f77b4;stroke:#1f77b4;" x="255.797924" xlink:href="#m02df4bd424" y="226.835613"/>
     <use style="fill:#1f77b4;stroke:#1f77b4;" x="256.571832" xlink:href="#m02df4bd424" y="228.190978"/>
     <use style="fill:#1f77b4;stroke:#1f77b4;" x="255.314231" xlink:href="#m02df4bd424" y="218.11223"/>
     <use style="fill:#1f77b4;stroke:#1f77b4;" x="256.862048" xlink:href="#m02df4bd424" y="240.432673"/>
     <use style="fill:#1f77b4;stroke:#1f77b4;" x="256.475094" xlink:href="#m02df4bd424" y="241.258052"/>
     <use style="fill:#1f77b4;stroke:#1f77b4;" x="257.732695" xlink:href="#m02df4bd424" y="238.765041"/>
     <use style="fill:#1f77b4;stroke:#1f77b4;" x="262.569622" xlink:href="#m02df4bd424" y="191.126687"/>
     <use style="fill:#1f77b4;stroke:#1f77b4;" x="262.279406" xlink:href="#m02df4bd424" y="191.884312"/>
     <use style="fill:#1f77b4;stroke:#1f77b4;" x="261.602236" xlink:href="#m02df4bd424" y="190.227527"/>
     <use style="fill:#1f77b4;stroke:#1f77b4;" x="265.761994" xlink:href="#m02df4bd424" y="192.304386"/>
     <use style="fill:#1f77b4;stroke:#1f77b4;" x="265.858732" xlink:href="#m02df4bd424" y="198.554863"/>
     <use style="fill:#1f77b4;stroke:#1f77b4;" x="264.988085" xlink:href="#m02df4bd424" y="201.555455"/>
     <use style="fill:#1f77b4;stroke:#1f77b4;" x="267.793503" xlink:href="#m02df4bd424" y="224.802456"/>
     <use style="fill:#1f77b4;stroke:#1f77b4;" x="268.470673" xlink:href="#m02df4bd424" y="225.012002"/>
     <use style="fill:#1f77b4;stroke:#1f77b4;" x="267.116333" xlink:href="#m02df4bd424" y="219.882314"/>
     <use style="fill:#1f77b4;stroke:#1f77b4;" x="268.470673" xlink:href="#m02df4bd424" y="198.147295"/>
     <use style="fill:#1f77b4;stroke:#1f77b4;" x="269.147843" xlink:href="#m02df4bd424" y="215.254389"/>
     <use style="fill:#1f77b4;stroke:#1f77b4;" x="268.567411" xlink:href="#m02df4bd424" y="195.228408"/>
     <use style="fill:#1f77b4;stroke:#1f77b4;" x="270.695659" xlink:href="#m02df4bd424" y="183.821672"/>
     <use style="fill:#1f77b4;stroke:#1f77b4;" x="270.695659" xlink:href="#m02df4bd424" y="184.603815"/>
     <use style="fill:#1f77b4;stroke:#1f77b4;" x="271.566306" xlink:href="#m02df4bd424" y="186.488198"/>
     <use style="fill:#1f77b4;stroke:#1f77b4;" x="275.726063" xlink:href="#m02df4bd424" y="199.094769"/>
     <use style="fill:#1f77b4;stroke:#1f77b4;" x="276.59671" xlink:href="#m02df4bd424" y="202.409877"/>
     <use style="fill:#1f77b4;stroke:#1f77b4;" x="275.629325" xlink:href="#m02df4bd424" y="213.011218"/>
     <use style="fill:#1f77b4;stroke:#1f77b4;" x="279.789082" xlink:href="#m02df4bd424" y="195.371965"/>
     <use style="fill:#1f77b4;stroke:#1f77b4;" x="279.982559" xlink:href="#m02df4bd424" y="196.82861"/>
     <use style="fill:#1f77b4;stroke:#1f77b4;" x="279.402128" xlink:href="#m02df4bd424" y="192.781858"/>
     <use style="fill:#1f77b4;stroke:#1f77b4;" x="282.5945" xlink:href="#m02df4bd424" y="197.989101"/>
     <use style="fill:#1f77b4;stroke:#1f77b4;" x="282.207546" xlink:href="#m02df4bd424" y="170.548139"/>
     <use style="fill:#1f77b4;stroke:#1f77b4;" x="282.981454" xlink:href="#m02df4bd424" y="166.81435"/>
     <use style="fill:#1f77b4;stroke:#1f77b4;" x="283.561885" xlink:href="#m02df4bd424" y="169.814957"/>
     <use style="fill:#1f77b4;stroke:#1f77b4;" x="285.980349" xlink:href="#m02df4bd424" y="171.855525"/>
     <use style="fill:#1f77b4;stroke:#1f77b4;" x="284.335794" xlink:href="#m02df4bd424" y="163.408598"/>
     <use style="fill:#1f77b4;stroke:#1f77b4;" x="288.59229" xlink:href="#m02df4bd424" y="162.193932"/>
     <use style="fill:#1f77b4;stroke:#1f77b4;" x="287.23795" xlink:href="#m02df4bd424" y="147.767097"/>
     <use style="fill:#1f77b4;stroke:#1f77b4;" x="288.495551" xlink:href="#m02df4bd424" y="169.191766"/>
     <use style="fill:#1f77b4;stroke:#1f77b4;" x="291.978138" xlink:href="#m02df4bd424" y="160.548984"/>
     <use style="fill:#1f77b4;stroke:#1f77b4;" x="292.074877" xlink:href="#m02df4bd424" y="153.632535"/>
     <use style="fill:#1f77b4;stroke:#1f77b4;" x="291.687923" xlink:href="#m02df4bd424" y="153.795008"/>
     <use style="fill:#1f77b4;stroke:#1f77b4;" x="295.654203" xlink:href="#m02df4bd424" y="175.487624"/>
     <use style="fill:#1f77b4;stroke:#1f77b4;" x="296.041157" xlink:href="#m02df4bd424" y="170.813359"/>
     <use style="fill:#1f77b4;stroke:#1f77b4;" x="294.977033" xlink:href="#m02df4bd424" y="166.931961"/>
     <use style="fill:#1f77b4;stroke:#1f77b4;" x="295.84768" xlink:href="#m02df4bd424" y="160.538055"/>
     <use style="fill:#1f77b4;stroke:#1f77b4;" x="294.783556" xlink:href="#m02df4bd424" y="166.472488"/>
     <use style="fill:#1f77b4;stroke:#1f77b4;" x="296.331373" xlink:href="#m02df4bd424" y="161.0783"/>
     <use style="fill:#1f77b4;stroke:#1f77b4;" x="302.812855" xlink:href="#m02df4bd424" y="197.471812"/>
     <use style="fill:#1f77b4;stroke:#1f77b4;" x="303.683502" xlink:href="#m02df4bd424" y="188.482565"/>
     <use style="fill:#1f77b4;stroke:#1f77b4;" x="303.296548" xlink:href="#m02df4bd424" y="202.414237"/>
     <use style="fill:#1f77b4;stroke:#1f77b4;" x="300.781346" xlink:href="#m02df4bd424" y="111.693504"/>
     <use style="fill:#1f77b4;stroke:#1f77b4;" x="301.942208" xlink:href="#m02df4bd424" y="115.273807"/>
     <use style="fill:#1f77b4;stroke:#1f77b4;" x="302.135685" xlink:href="#m02df4bd424" y="107.797948"/>
     <use style="fill:#1f77b4;stroke:#1f77b4;" x="306.198704" xlink:href="#m02df4bd424" y="193.720036"/>
     <use style="fill:#1f77b4;stroke:#1f77b4;" x="306.779135" xlink:href="#m02df4bd424" y="187.15973"/>
     <use style="fill:#1f77b4;stroke:#1f77b4;" x="306.101966" xlink:href="#m02df4bd424" y="185.676133"/>
     <use style="fill:#1f77b4;stroke:#1f77b4;" x="306.295443" xlink:href="#m02df4bd424" y="190.460834"/>
     <use style="fill:#1f77b4;stroke:#1f77b4;" x="308.133475" xlink:href="#m02df4bd424" y="194.917743"/>
     <use style="fill:#1f77b4;stroke:#1f77b4;" x="307.649782" xlink:href="#m02df4bd424" y="193.421205"/>
     <use style="fill:#1f77b4;stroke:#1f77b4;" x="312.486709" xlink:href="#m02df4bd424" y="178.20717"/>
     <use style="fill:#1f77b4;stroke:#1f77b4;" x="311.809539" xlink:href="#m02df4bd424" y="178.811982"/>
     <use style="fill:#1f77b4;stroke:#1f77b4;" x="310.938893" xlink:href="#m02df4bd424" y="173.741207"/>
     <use style="fill:#1f77b4;stroke:#1f77b4;" x="314.228003" xlink:href="#m02df4bd424" y="183.034369"/>
     <use style="fill:#1f77b4;stroke:#1f77b4;" x="311.906278" xlink:href="#m02df4bd424" y="180.446079"/>
     <use style="fill:#1f77b4;stroke:#1f77b4;" x="313.260618" xlink:href="#m02df4bd424" y="196.143071"/>
     <use style="fill:#1f77b4;stroke:#1f77b4;" x="317.130159" xlink:href="#m02df4bd424" y="187.39097"/>
     <use style="fill:#1f77b4;stroke:#1f77b4;" x="315.969297" xlink:href="#m02df4bd424" y="176.945268"/>
     <use style="fill:#1f77b4;stroke:#1f77b4;" x="318.097545" xlink:href="#m02df4bd424" y="176.263623"/>
     <use style="fill:#1f77b4;stroke:#1f77b4;" x="322.257302" xlink:href="#m02df4bd424" y="112.367182"/>
     <use style="fill:#1f77b4;stroke:#1f77b4;" x="322.740995" xlink:href="#m02df4bd424" y="126.373028"/>
     <use style="fill:#1f77b4;stroke:#1f77b4;" x="322.354041" xlink:href="#m02df4bd424" y="138.781624"/>
     <use style="fill:#1f77b4;stroke:#1f77b4;" x="321.386655" xlink:href="#m02df4bd424" y="124.668115"/>
     <use style="fill:#1f77b4;stroke:#1f77b4;" x="322.837733" xlink:href="#m02df4bd424" y="119.460912"/>
     <use style="fill:#1f77b4;stroke:#1f77b4;" x="322.160563" xlink:href="#m02df4bd424" y="127.120545"/>
     <use style="fill:#1f77b4;stroke:#1f77b4;" x="328.255092" xlink:href="#m02df4bd424" y="189.28787"/>
     <use style="fill:#1f77b4;stroke:#1f77b4;" x="326.707275" xlink:href="#m02df4bd424" y="176.552046"/>
     <use style="fill:#1f77b4;stroke:#1f77b4;" x="327.67466" xlink:href="#m02df4bd424" y="169.958428"/>
     <use style="fill:#1f77b4;stroke:#1f77b4;" x="328.932261" xlink:href="#m02df4bd424" y="175.720112"/>
     <use style="fill:#1f77b4;stroke:#1f77b4;" x="328.738784" xlink:href="#m02df4bd424" y="167.905527"/>
     <use style="fill:#1f77b4;stroke:#1f77b4;" x="329.319216" xlink:href="#m02df4bd424" y="175.968829"/>
     <use style="fill:#1f77b4;stroke:#1f77b4;" x="332.801803" xlink:href="#m02df4bd424" y="163.035319"/>
     <use style="fill:#1f77b4;stroke:#1f77b4;" x="331.544202" xlink:href="#m02df4bd424" y="167.330686"/>
     <use style="fill:#1f77b4;stroke:#1f77b4;" x="332.705064" xlink:href="#m02df4bd424" y="163.86963"/>
     <use style="fill:#1f77b4;stroke:#1f77b4;" x="333.285496" xlink:href="#m02df4bd424" y="159.876494"/>
     <use style="fill:#1f77b4;stroke:#1f77b4;" x="334.639835" xlink:href="#m02df4bd424" y="175.472121"/>
     <use style="fill:#1f77b4;stroke:#1f77b4;" x="334.736574" xlink:href="#m02df4bd424" y="159.170124"/>
     <use style="fill:#1f77b4;stroke:#1f77b4;" x="339.960455" xlink:href="#m02df4bd424" y="186.657949"/>
     <use style="fill:#1f77b4;stroke:#1f77b4;" x="337.058299" xlink:href="#m02df4bd424" y="191.867758"/>
     <use style="fill:#1f77b4;stroke:#1f77b4;" x="338.412638" xlink:href="#m02df4bd424" y="189.35801"/>
     <use style="fill:#1f77b4;stroke:#1f77b4;" x="340.250671" xlink:href="#m02df4bd424" y="123.92676"/>
     <use style="fill:#1f77b4;stroke:#1f77b4;" x="340.153932" xlink:href="#m02df4bd424" y="127.561044"/>
     <use style="fill:#1f77b4;stroke:#1f77b4;" x="340.250671" xlink:href="#m02df4bd424" y="133.469669"/>
     <use style="fill:#1f77b4;stroke:#1f77b4;" x="343.249565" xlink:href="#m02df4bd424" y="142.369259"/>
     <use style="fill:#1f77b4;stroke:#1f77b4;" x="343.63652" xlink:href="#m02df4bd424" y="147.248261"/>
     <use style="fill:#1f77b4;stroke:#1f77b4;" x="342.862611" xlink:href="#m02df4bd424" y="139.073997"/>
     <use style="fill:#1f77b4;stroke:#1f77b4;" x="347.699538" xlink:href="#m02df4bd424" y="179.105919"/>
     <use style="fill:#1f77b4;stroke:#1f77b4;" x="346.054983" xlink:href="#m02df4bd424" y="158.38683"/>
     <use style="fill:#1f77b4;stroke:#1f77b4;" x="347.215846" xlink:href="#m02df4bd424" y="159.892531"/>
     <use style="fill:#1f77b4;stroke:#1f77b4;" x="351.665819" xlink:href="#m02df4bd424" y="120.306313"/>
     <use style="fill:#1f77b4;stroke:#1f77b4;" x="350.021263" xlink:href="#m02df4bd424" y="124.698405"/>
     <use style="fill:#1f77b4;stroke:#1f77b4;" x="349.053878" xlink:href="#m02df4bd424" y="122.165717"/>
     <use style="fill:#1f77b4;stroke:#1f77b4;" x="352.342988" xlink:href="#m02df4bd424" y="202.991931"/>
     <use style="fill:#1f77b4;stroke:#1f77b4;" x="353.794067" xlink:href="#m02df4bd424" y="201.63454"/>
     <use style="fill:#1f77b4;stroke:#1f77b4;" x="353.116897" xlink:href="#m02df4bd424" y="203.042478"/>
     <use style="fill:#1f77b4;stroke:#1f77b4;" x="354.85819" xlink:href="#m02df4bd424" y="194.806554"/>
     <use style="fill:#1f77b4;stroke:#1f77b4;" x="353.020158" xlink:href="#m02df4bd424" y="198.646395"/>
     <use style="fill:#1f77b4;stroke:#1f77b4;" x="355.632099" xlink:href="#m02df4bd424" y="199.636662"/>
     <use style="fill:#1f77b4;stroke:#1f77b4;" x="355.632099" xlink:href="#m02df4bd424" y="172.49732"/>
     <use style="fill:#1f77b4;stroke:#1f77b4;" x="353.794067" xlink:href="#m02df4bd424" y="175.875002"/>
     <use style="fill:#1f77b4;stroke:#1f77b4;" x="357.470131" xlink:href="#m02df4bd424" y="174.083006"/>
     <use style="fill:#1f77b4;stroke:#1f77b4;" x="362.113581" xlink:href="#m02df4bd424" y="143.980136"/>
     <use style="fill:#1f77b4;stroke:#1f77b4;" x="360.952719" xlink:href="#m02df4bd424" y="140.058636"/>
     <use style="fill:#1f77b4;stroke:#1f77b4;" x="360.372287" xlink:href="#m02df4bd424" y="145.789738"/>
     <use style="fill:#1f77b4;stroke:#1f77b4;" x="365.112476" xlink:href="#m02df4bd424" y="173.478065"/>
     <use style="fill:#1f77b4;stroke:#1f77b4;" x="363.177705" xlink:href="#m02df4bd424" y="172.075877"/>
     <use style="fill:#1f77b4;stroke:#1f77b4;" x="363.854875" xlink:href="#m02df4bd424" y="166.050589"/>
     <use style="fill:#1f77b4;stroke:#1f77b4;" x="365.983123" xlink:href="#m02df4bd424" y="154.70426"/>
     <use style="fill:#1f77b4;stroke:#1f77b4;" x="366.1766" xlink:href="#m02df4bd424" y="155.952993"/>
     <use style="fill:#1f77b4;stroke:#1f77b4;" x="368.304848" xlink:href="#m02df4bd424" y="168.781549"/>
     <use style="fill:#1f77b4;stroke:#1f77b4;" x="369.562449" xlink:href="#m02df4bd424" y="116.604808"/>
     <use style="fill:#1f77b4;stroke:#1f77b4;" x="370.336357" xlink:href="#m02df4bd424" y="112.825768"/>
     <use style="fill:#1f77b4;stroke:#1f77b4;" x="368.595063" xlink:href="#m02df4bd424" y="112.274892"/>
     <use style="fill:#1f77b4;stroke:#1f77b4;" x="374.399376" xlink:href="#m02df4bd424" y="116.85651"/>
     <use style="fill:#1f77b4;stroke:#1f77b4;" x="373.528729" xlink:href="#m02df4bd424" y="117.496042"/>
     <use style="fill:#1f77b4;stroke:#1f77b4;" x="373.818945" xlink:href="#m02df4bd424" y="113.587051"/>
     <use style="fill:#1f77b4;stroke:#1f77b4;" x="376.721101" xlink:href="#m02df4bd424" y="167.306711"/>
     <use style="fill:#1f77b4;stroke:#1f77b4;" x="375.270023" xlink:href="#m02df4bd424" y="144.672135"/>
     <use style="fill:#1f77b4;stroke:#1f77b4;" x="376.237408" xlink:href="#m02df4bd424" y="157.870534"/>
     <use style="fill:#1f77b4;stroke:#1f77b4;" x="381.558028" xlink:href="#m02df4bd424" y="157.710475"/>
     <use style="fill:#1f77b4;stroke:#1f77b4;" x="381.558028" xlink:href="#m02df4bd424" y="150.84057"/>
     <use style="fill:#1f77b4;stroke:#1f77b4;" x="380.880858" xlink:href="#m02df4bd424" y="154.16649"/>
     <use style="fill:#1f77b4;stroke:#1f77b4;" x="380.977597" xlink:href="#m02df4bd424" y="150.432606"/>
     <use style="fill:#1f77b4;stroke:#1f77b4;" x="380.397165" xlink:href="#m02df4bd424" y="145.512821"/>
     <use style="fill:#1f77b4;stroke:#1f77b4;" x="381.944982" xlink:href="#m02df4bd424" y="154.424896"/>
     <use style="fill:#1f77b4;stroke:#1f77b4;" x="386.201478" xlink:href="#m02df4bd424" y="155.928848"/>
     <use style="fill:#1f77b4;stroke:#1f77b4;" x="386.201478" xlink:href="#m02df4bd424" y="154.975697"/>
     <use style="fill:#1f77b4;stroke:#1f77b4;" x="386.201478" xlink:href="#m02df4bd424" y="150.582682"/>
     <use style="fill:#1f77b4;stroke:#1f77b4;" x="387.459079" xlink:href="#m02df4bd424" y="121.025201"/>
     <use style="fill:#1f77b4;stroke:#1f77b4;" x="387.749295" xlink:href="#m02df4bd424" y="120.524412"/>
     <use style="fill:#1f77b4;stroke:#1f77b4;" x="387.36234" xlink:href="#m02df4bd424" y="120.794257"/>
     <use style="fill:#1f77b4;stroke:#1f77b4;" x="393.263391" xlink:href="#m02df4bd424" y="138.811164"/>
     <use style="fill:#1f77b4;stroke:#1f77b4;" x="391.425359" xlink:href="#m02df4bd424" y="126.696575"/>
     <use style="fill:#1f77b4;stroke:#1f77b4;" x="391.328621" xlink:href="#m02df4bd424" y="134.804321"/>
     <use style="fill:#1f77b4;stroke:#1f77b4;" x="395.004685" xlink:href="#m02df4bd424" y="139.668907"/>
     <use style="fill:#1f77b4;stroke:#1f77b4;" x="394.520993" xlink:href="#m02df4bd424" y="133.155229"/>
     <use style="fill:#1f77b4;stroke:#1f77b4;" x="394.520993" xlink:href="#m02df4bd424" y="159.911096"/>
     <use style="fill:#1f77b4;stroke:#1f77b4;" x="398.487273" xlink:href="#m02df4bd424" y="138.235506"/>
     <use style="fill:#1f77b4;stroke:#1f77b4;" x="396.842718" xlink:href="#m02df4bd424" y="129.91974"/>
     <use style="fill:#1f77b4;stroke:#1f77b4;" x="396.455763" xlink:href="#m02df4bd424" y="127.698253"/>
    </g>
   </g>
   <g id="matplotlib.axis_1">
    <g id="xtick_1">
     <g id="line2d_1">
      <defs>
       <path d="M 0 0 
L 0 3.5 
" id="mbb71612cc3" style="stroke:#000000;stroke-width:0.8;"/>
      </defs>
      <g>
       <use style="stroke:#000000;stroke-width:0.8;" x="89.61169" xlink:href="#mbb71612cc3" y="307.584"/>
      </g>
     </g>
     <g id="text_1">
      <!-- 1.2 -->
      <defs>
       <path d="M 12.40625 8.296875 
L 28.515625 8.296875 
L 28.515625 63.921875 
L 10.984375 60.40625 
L 10.984375 69.390625 
L 28.421875 72.90625 
L 38.28125 72.90625 
L 38.28125 8.296875 
L 54.390625 8.296875 
L 54.390625 0 
L 12.40625 0 
z
" id="DejaVuSans-49"/>
       <path d="M 10.6875 12.40625 
L 21 12.40625 
L 21 0 
L 10.6875 0 
z
" id="DejaVuSans-46"/>
       <path d="M 19.1875 8.296875 
L 53.609375 8.296875 
L 53.609375 0 
L 7.328125 0 
L 7.328125 8.296875 
Q 12.9375 14.109375 22.625 23.890625 
Q 32.328125 33.6875 34.8125 36.53125 
Q 39.546875 41.84375 41.421875 45.53125 
Q 43.3125 49.21875 43.3125 52.78125 
Q 43.3125 58.59375 39.234375 62.25 
Q 35.15625 65.921875 28.609375 65.921875 
Q 23.96875 65.921875 18.8125 64.3125 
Q 13.671875 62.703125 7.8125 59.421875 
L 7.8125 69.390625 
Q 13.765625 71.78125 18.9375 73 
Q 24.125 74.21875 28.421875 74.21875 
Q 39.75 74.21875 46.484375 68.546875 
Q 53.21875 62.890625 53.21875 53.421875 
Q 53.21875 48.921875 51.53125 44.890625 
Q 49.859375 40.875 45.40625 35.40625 
Q 44.1875 33.984375 37.640625 27.21875 
Q 31.109375 20.453125 19.1875 8.296875 
z
" id="DejaVuSans-50"/>
      </defs>
      <g transform="translate(81.660128 322.182437)scale(0.1 -0.1)">
       <use xlink:href="#DejaVuSans-49"/>
       <use x="63.623047" xlink:href="#DejaVuSans-46"/>
       <use x="95.410156" xlink:href="#DejaVuSans-50"/>
      </g>
     </g>
    </g>
    <g id="xtick_2">
     <g id="line2d_2">
      <g>
       <use style="stroke:#000000;stroke-width:0.8;" x="148.65621" xlink:href="#mbb71612cc3" y="307.584"/>
      </g>
     </g>
     <g id="text_2">
      <!-- 1.4 -->
      <defs>
       <path d="M 37.796875 64.3125 
L 12.890625 25.390625 
L 37.796875 25.390625 
z
M 35.203125 72.90625 
L 47.609375 72.90625 
L 47.609375 25.390625 
L 58.015625 25.390625 
L 58.015625 17.1875 
L 47.609375 17.1875 
L 47.609375 0 
L 37.796875 0 
L 37.796875 17.1875 
L 4.890625 17.1875 
L 4.890625 26.703125 
z
" id="DejaVuSans-52"/>
      </defs>
      <g transform="translate(140.704648 322.182437)scale(0.1 -0.1)">
       <use xlink:href="#DejaVuSans-49"/>
       <use x="63.623047" xlink:href="#DejaVuSans-46"/>
       <use x="95.410156" xlink:href="#DejaVuSans-52"/>
      </g>
     </g>
    </g>
    <g id="xtick_3">
     <g id="line2d_3">
      <g>
       <use style="stroke:#000000;stroke-width:0.8;" x="207.70073" xlink:href="#mbb71612cc3" y="307.584"/>
      </g>
     </g>
     <g id="text_3">
      <!-- 1.6 -->
      <defs>
       <path d="M 33.015625 40.375 
Q 26.375 40.375 22.484375 35.828125 
Q 18.609375 31.296875 18.609375 23.390625 
Q 18.609375 15.53125 22.484375 10.953125 
Q 26.375 6.390625 33.015625 6.390625 
Q 39.65625 6.390625 43.53125 10.953125 
Q 47.40625 15.53125 47.40625 23.390625 
Q 47.40625 31.296875 43.53125 35.828125 
Q 39.65625 40.375 33.015625 40.375 
z
M 52.59375 71.296875 
L 52.59375 62.3125 
Q 48.875 64.0625 45.09375 64.984375 
Q 41.3125 65.921875 37.59375 65.921875 
Q 27.828125 65.921875 22.671875 59.328125 
Q 17.53125 52.734375 16.796875 39.40625 
Q 19.671875 43.65625 24.015625 45.921875 
Q 28.375 48.1875 33.59375 48.1875 
Q 44.578125 48.1875 50.953125 41.515625 
Q 57.328125 34.859375 57.328125 23.390625 
Q 57.328125 12.15625 50.6875 5.359375 
Q 44.046875 -1.421875 33.015625 -1.421875 
Q 20.359375 -1.421875 13.671875 8.265625 
Q 6.984375 17.96875 6.984375 36.375 
Q 6.984375 53.65625 15.1875 63.9375 
Q 23.390625 74.21875 37.203125 74.21875 
Q 40.921875 74.21875 44.703125 73.484375 
Q 48.484375 72.75 52.59375 71.296875 
z
" id="DejaVuSans-54"/>
      </defs>
      <g transform="translate(199.749168 322.182437)scale(0.1 -0.1)">
       <use xlink:href="#DejaVuSans-49"/>
       <use x="63.623047" xlink:href="#DejaVuSans-46"/>
       <use x="95.410156" xlink:href="#DejaVuSans-54"/>
      </g>
     </g>
    </g>
    <g id="xtick_4">
     <g id="line2d_4">
      <g>
       <use style="stroke:#000000;stroke-width:0.8;" x="266.74525" xlink:href="#mbb71612cc3" y="307.584"/>
      </g>
     </g>
     <g id="text_4">
      <!-- 1.8 -->
      <defs>
       <path d="M 31.78125 34.625 
Q 24.75 34.625 20.71875 30.859375 
Q 16.703125 27.09375 16.703125 20.515625 
Q 16.703125 13.921875 20.71875 10.15625 
Q 24.75 6.390625 31.78125 6.390625 
Q 38.8125 6.390625 42.859375 10.171875 
Q 46.921875 13.96875 46.921875 20.515625 
Q 46.921875 27.09375 42.890625 30.859375 
Q 38.875 34.625 31.78125 34.625 
z
M 21.921875 38.8125 
Q 15.578125 40.375 12.03125 44.71875 
Q 8.5 49.078125 8.5 55.328125 
Q 8.5 64.0625 14.71875 69.140625 
Q 20.953125 74.21875 31.78125 74.21875 
Q 42.671875 74.21875 48.875 69.140625 
Q 55.078125 64.0625 55.078125 55.328125 
Q 55.078125 49.078125 51.53125 44.71875 
Q 48 40.375 41.703125 38.8125 
Q 48.828125 37.15625 52.796875 32.3125 
Q 56.78125 27.484375 56.78125 20.515625 
Q 56.78125 9.90625 50.3125 4.234375 
Q 43.84375 -1.421875 31.78125 -1.421875 
Q 19.734375 -1.421875 13.25 4.234375 
Q 6.78125 9.90625 6.78125 20.515625 
Q 6.78125 27.484375 10.78125 32.3125 
Q 14.796875 37.15625 21.921875 38.8125 
z
M 18.3125 54.390625 
Q 18.3125 48.734375 21.84375 45.5625 
Q 25.390625 42.390625 31.78125 42.390625 
Q 38.140625 42.390625 41.71875 45.5625 
Q 45.3125 48.734375 45.3125 54.390625 
Q 45.3125 60.0625 41.71875 63.234375 
Q 38.140625 66.40625 31.78125 66.40625 
Q 25.390625 66.40625 21.84375 63.234375 
Q 18.3125 60.0625 18.3125 54.390625 
z
" id="DejaVuSans-56"/>
      </defs>
      <g transform="translate(258.793688 322.182437)scale(0.1 -0.1)">
       <use xlink:href="#DejaVuSans-49"/>
       <use x="63.623047" xlink:href="#DejaVuSans-46"/>
       <use x="95.410156" xlink:href="#DejaVuSans-56"/>
      </g>
     </g>
    </g>
    <g id="xtick_5">
     <g id="line2d_5">
      <g>
       <use style="stroke:#000000;stroke-width:0.8;" x="325.78977" xlink:href="#mbb71612cc3" y="307.584"/>
      </g>
     </g>
     <g id="text_5">
      <!-- 2.0 -->
      <defs>
       <path d="M 31.78125 66.40625 
Q 24.171875 66.40625 20.328125 58.90625 
Q 16.5 51.421875 16.5 36.375 
Q 16.5 21.390625 20.328125 13.890625 
Q 24.171875 6.390625 31.78125 6.390625 
Q 39.453125 6.390625 43.28125 13.890625 
Q 47.125 21.390625 47.125 36.375 
Q 47.125 51.421875 43.28125 58.90625 
Q 39.453125 66.40625 31.78125 66.40625 
z
M 31.78125 74.21875 
Q 44.046875 74.21875 50.515625 64.515625 
Q 56.984375 54.828125 56.984375 36.375 
Q 56.984375 17.96875 50.515625 8.265625 
Q 44.046875 -1.421875 31.78125 -1.421875 
Q 19.53125 -1.421875 13.0625 8.265625 
Q 6.59375 17.96875 6.59375 36.375 
Q 6.59375 54.828125 13.0625 64.515625 
Q 19.53125 74.21875 31.78125 74.21875 
z
" id="DejaVuSans-48"/>
      </defs>
      <g transform="translate(317.838208 322.182437)scale(0.1 -0.1)">
       <use xlink:href="#DejaVuSans-50"/>
       <use x="63.623047" xlink:href="#DejaVuSans-46"/>
       <use x="95.410156" xlink:href="#DejaVuSans-48"/>
      </g>
     </g>
    </g>
    <g id="xtick_6">
     <g id="line2d_6">
      <g>
       <use style="stroke:#000000;stroke-width:0.8;" x="384.83429" xlink:href="#mbb71612cc3" y="307.584"/>
      </g>
     </g>
     <g id="text_6">
      <!-- 2.2 -->
      <g transform="translate(376.882728 322.182437)scale(0.1 -0.1)">
       <use xlink:href="#DejaVuSans-50"/>
       <use x="63.623047" xlink:href="#DejaVuSans-46"/>
       <use x="95.410156" xlink:href="#DejaVuSans-50"/>
      </g>
     </g>
    </g>
    <g id="text_7">
     <!-- Meas_Freq -->
     <defs>
      <path d="M 9.8125 72.90625 
L 24.515625 72.90625 
L 43.109375 23.296875 
L 61.8125 72.90625 
L 76.515625 72.90625 
L 76.515625 0 
L 66.890625 0 
L 66.890625 64.015625 
L 48.09375 14.015625 
L 38.1875 14.015625 
L 19.390625 64.015625 
L 19.390625 0 
L 9.8125 0 
z
" id="DejaVuSans-77"/>
      <path d="M 56.203125 29.59375 
L 56.203125 25.203125 
L 14.890625 25.203125 
Q 15.484375 15.921875 20.484375 11.0625 
Q 25.484375 6.203125 34.421875 6.203125 
Q 39.59375 6.203125 44.453125 7.46875 
Q 49.3125 8.734375 54.109375 11.28125 
L 54.109375 2.78125 
Q 49.265625 0.734375 44.1875 -0.34375 
Q 39.109375 -1.421875 33.890625 -1.421875 
Q 20.796875 -1.421875 13.15625 6.1875 
Q 5.515625 13.8125 5.515625 26.8125 
Q 5.515625 40.234375 12.765625 48.109375 
Q 20.015625 56 32.328125 56 
Q 43.359375 56 49.78125 48.890625 
Q 56.203125 41.796875 56.203125 29.59375 
z
M 47.21875 32.234375 
Q 47.125 39.59375 43.09375 43.984375 
Q 39.0625 48.390625 32.421875 48.390625 
Q 24.90625 48.390625 20.390625 44.140625 
Q 15.875 39.890625 15.1875 32.171875 
z
" id="DejaVuSans-101"/>
      <path d="M 34.28125 27.484375 
Q 23.390625 27.484375 19.1875 25 
Q 14.984375 22.515625 14.984375 16.5 
Q 14.984375 11.71875 18.140625 8.90625 
Q 21.296875 6.109375 26.703125 6.109375 
Q 34.1875 6.109375 38.703125 11.40625 
Q 43.21875 16.703125 43.21875 25.484375 
L 43.21875 27.484375 
z
M 52.203125 31.203125 
L 52.203125 0 
L 43.21875 0 
L 43.21875 8.296875 
Q 40.140625 3.328125 35.546875 0.953125 
Q 30.953125 -1.421875 24.3125 -1.421875 
Q 15.921875 -1.421875 10.953125 3.296875 
Q 6 8.015625 6 15.921875 
Q 6 25.140625 12.171875 29.828125 
Q 18.359375 34.515625 30.609375 34.515625 
L 43.21875 34.515625 
L 43.21875 35.40625 
Q 43.21875 41.609375 39.140625 45 
Q 35.0625 48.390625 27.6875 48.390625 
Q 23 48.390625 18.546875 47.265625 
Q 14.109375 46.140625 10.015625 43.890625 
L 10.015625 52.203125 
Q 14.9375 54.109375 19.578125 55.046875 
Q 24.21875 56 28.609375 56 
Q 40.484375 56 46.34375 49.84375 
Q 52.203125 43.703125 52.203125 31.203125 
z
" id="DejaVuSans-97"/>
      <path d="M 44.28125 53.078125 
L 44.28125 44.578125 
Q 40.484375 46.53125 36.375 47.5 
Q 32.28125 48.484375 27.875 48.484375 
Q 21.1875 48.484375 17.84375 46.4375 
Q 14.5 44.390625 14.5 40.28125 
Q 14.5 37.15625 16.890625 35.375 
Q 19.28125 33.59375 26.515625 31.984375 
L 29.59375 31.296875 
Q 39.15625 29.25 43.1875 25.515625 
Q 47.21875 21.78125 47.21875 15.09375 
Q 47.21875 7.46875 41.1875 3.015625 
Q 35.15625 -1.421875 24.609375 -1.421875 
Q 20.21875 -1.421875 15.453125 -0.5625 
Q 10.6875 0.296875 5.421875 2 
L 5.421875 11.28125 
Q 10.40625 8.6875 15.234375 7.390625 
Q 20.0625 6.109375 24.8125 6.109375 
Q 31.15625 6.109375 34.5625 8.28125 
Q 37.984375 10.453125 37.984375 14.40625 
Q 37.984375 18.0625 35.515625 20.015625 
Q 33.0625 21.96875 24.703125 23.78125 
L 21.578125 24.515625 
Q 13.234375 26.265625 9.515625 29.90625 
Q 5.8125 33.546875 5.8125 39.890625 
Q 5.8125 47.609375 11.28125 51.796875 
Q 16.75 56 26.8125 56 
Q 31.78125 56 36.171875 55.265625 
Q 40.578125 54.546875 44.28125 53.078125 
z
" id="DejaVuSans-115"/>
      <path d="M 50.984375 -16.609375 
L 50.984375 -23.578125 
L -0.984375 -23.578125 
L -0.984375 -16.609375 
z
" id="DejaVuSans-95"/>
      <path d="M 9.8125 72.90625 
L 51.703125 72.90625 
L 51.703125 64.59375 
L 19.671875 64.59375 
L 19.671875 43.109375 
L 48.578125 43.109375 
L 48.578125 34.8125 
L 19.671875 34.8125 
L 19.671875 0 
L 9.8125 0 
z
" id="DejaVuSans-70"/>
      <path d="M 41.109375 46.296875 
Q 39.59375 47.171875 37.8125 47.578125 
Q 36.03125 48 33.890625 48 
Q 26.265625 48 22.1875 43.046875 
Q 18.109375 38.09375 18.109375 28.8125 
L 18.109375 0 
L 9.078125 0 
L 9.078125 54.6875 
L 18.109375 54.6875 
L 18.109375 46.1875 
Q 20.953125 51.171875 25.484375 53.578125 
Q 30.03125 56 36.53125 56 
Q 37.453125 56 38.578125 55.875 
Q 39.703125 55.765625 41.0625 55.515625 
z
" id="DejaVuSans-114"/>
      <path d="M 14.796875 27.296875 
Q 14.796875 17.390625 18.875 11.75 
Q 22.953125 6.109375 30.078125 6.109375 
Q 37.203125 6.109375 41.296875 11.75 
Q 45.40625 17.390625 45.40625 27.296875 
Q 45.40625 37.203125 41.296875 42.84375 
Q 37.203125 48.484375 30.078125 48.484375 
Q 22.953125 48.484375 18.875 42.84375 
Q 14.796875 37.203125 14.796875 27.296875 
z
M 45.40625 8.203125 
Q 42.578125 3.328125 38.25 0.953125 
Q 33.9375 -1.421875 27.875 -1.421875 
Q 17.96875 -1.421875 11.734375 6.484375 
Q 5.515625 14.40625 5.515625 27.296875 
Q 5.515625 40.1875 11.734375 48.09375 
Q 17.96875 56 27.875 56 
Q 33.9375 56 38.25 53.625 
Q 42.578125 51.265625 45.40625 46.390625 
L 45.40625 54.6875 
L 54.390625 54.6875 
L 54.390625 -20.796875 
L 45.40625 -20.796875 
z
" id="DejaVuSans-113"/>
     </defs>
     <g transform="translate(209.425625 335.582437)scale(0.1 -0.1)">
      <use xlink:href="#DejaVuSans-77"/>
      <use x="86.279297" xlink:href="#DejaVuSans-101"/>
      <use x="147.802734" xlink:href="#DejaVuSans-97"/>
      <use x="209.082031" xlink:href="#DejaVuSans-115"/>
      <use x="261.181641" xlink:href="#DejaVuSans-95"/>
      <use x="311.181641" xlink:href="#DejaVuSans-70"/>
      <use x="368.591797" xlink:href="#DejaVuSans-114"/>
      <use x="409.673828" xlink:href="#DejaVuSans-101"/>
      <use x="471.197266" xlink:href="#DejaVuSans-113"/>
     </g>
    </g>
    <g id="text_8">
     <!-- 1e8 -->
     <g transform="translate(395.841875 334.860562)scale(0.1 -0.1)">
      <use xlink:href="#DejaVuSans-49"/>
      <use x="63.623047" xlink:href="#DejaVuSans-101"/>
      <use x="125.146484" xlink:href="#DejaVuSans-56"/>
     </g>
    </g>
   </g>
   <g id="matplotlib.axis_2">
    <g id="ytick_1">
     <g id="line2d_7">
      <defs>
       <path d="M 0 0 
L -3.5 0 
" id="m9d2e161c69" style="stroke:#000000;stroke-width:0.8;"/>
      </defs>
      <g>
       <use style="stroke:#000000;stroke-width:0.8;" x="57.6" xlink:href="#m9d2e161c69" y="281.715522"/>
      </g>
     </g>
     <g id="text_9">
      <!-- 0.036 -->
      <defs>
       <path d="M 40.578125 39.3125 
Q 47.65625 37.796875 51.625 33 
Q 55.609375 28.21875 55.609375 21.1875 
Q 55.609375 10.40625 48.1875 4.484375 
Q 40.765625 -1.421875 27.09375 -1.421875 
Q 22.515625 -1.421875 17.65625 -0.515625 
Q 12.796875 0.390625 7.625 2.203125 
L 7.625 11.71875 
Q 11.71875 9.328125 16.59375 8.109375 
Q 21.484375 6.890625 26.8125 6.890625 
Q 36.078125 6.890625 40.9375 10.546875 
Q 45.796875 14.203125 45.796875 21.1875 
Q 45.796875 27.640625 41.28125 31.265625 
Q 36.765625 34.90625 28.71875 34.90625 
L 20.21875 34.90625 
L 20.21875 43.015625 
L 29.109375 43.015625 
Q 36.375 43.015625 40.234375 45.921875 
Q 44.09375 48.828125 44.09375 54.296875 
Q 44.09375 59.90625 40.109375 62.90625 
Q 36.140625 65.921875 28.71875 65.921875 
Q 24.65625 65.921875 20.015625 65.03125 
Q 15.375 64.15625 9.8125 62.3125 
L 9.8125 71.09375 
Q 15.4375 72.65625 20.34375 73.4375 
Q 25.25 74.21875 29.59375 74.21875 
Q 40.828125 74.21875 47.359375 69.109375 
Q 53.90625 64.015625 53.90625 55.328125 
Q 53.90625 49.265625 50.4375 45.09375 
Q 46.96875 40.921875 40.578125 39.3125 
z
" id="DejaVuSans-51"/>
      </defs>
      <g transform="translate(21.971875 285.514741)scale(0.1 -0.1)">
       <use xlink:href="#DejaVuSans-48"/>
       <use x="63.623047" xlink:href="#DejaVuSans-46"/>
       <use x="95.410156" xlink:href="#DejaVuSans-48"/>
       <use x="159.033203" xlink:href="#DejaVuSans-51"/>
       <use x="222.65625" xlink:href="#DejaVuSans-54"/>
      </g>
     </g>
    </g>
    <g id="ytick_2">
     <g id="line2d_8">
      <g>
       <use style="stroke:#000000;stroke-width:0.8;" x="57.6" xlink:href="#m9d2e161c69" y="245.860818"/>
      </g>
     </g>
     <g id="text_10">
      <!-- 0.038 -->
      <g transform="translate(21.971875 249.660037)scale(0.1 -0.1)">
       <use xlink:href="#DejaVuSans-48"/>
       <use x="63.623047" xlink:href="#DejaVuSans-46"/>
       <use x="95.410156" xlink:href="#DejaVuSans-48"/>
       <use x="159.033203" xlink:href="#DejaVuSans-51"/>
       <use x="222.65625" xlink:href="#DejaVuSans-56"/>
      </g>
     </g>
    </g>
    <g id="ytick_3">
     <g id="line2d_9">
      <g>
       <use style="stroke:#000000;stroke-width:0.8;" x="57.6" xlink:href="#m9d2e161c69" y="210.006114"/>
      </g>
     </g>
     <g id="text_11">
      <!-- 0.040 -->
      <g transform="translate(21.971875 213.805333)scale(0.1 -0.1)">
       <use xlink:href="#DejaVuSans-48"/>
       <use x="63.623047" xlink:href="#DejaVuSans-46"/>
       <use x="95.410156" xlink:href="#DejaVuSans-48"/>
       <use x="159.033203" xlink:href="#DejaVuSans-52"/>
       <use x="222.65625" xlink:href="#DejaVuSans-48"/>
      </g>
     </g>
    </g>
    <g id="ytick_4">
     <g id="line2d_10">
      <g>
       <use style="stroke:#000000;stroke-width:0.8;" x="57.6" xlink:href="#m9d2e161c69" y="174.15141"/>
      </g>
     </g>
     <g id="text_12">
      <!-- 0.042 -->
      <g transform="translate(21.971875 177.950628)scale(0.1 -0.1)">
       <use xlink:href="#DejaVuSans-48"/>
       <use x="63.623047" xlink:href="#DejaVuSans-46"/>
       <use x="95.410156" xlink:href="#DejaVuSans-48"/>
       <use x="159.033203" xlink:href="#DejaVuSans-52"/>
       <use x="222.65625" xlink:href="#DejaVuSans-50"/>
      </g>
     </g>
    </g>
    <g id="ytick_5">
     <g id="line2d_11">
      <g>
       <use style="stroke:#000000;stroke-width:0.8;" x="57.6" xlink:href="#m9d2e161c69" y="138.296706"/>
      </g>
     </g>
     <g id="text_13">
      <!-- 0.044 -->
      <g transform="translate(21.971875 142.095924)scale(0.1 -0.1)">
       <use xlink:href="#DejaVuSans-48"/>
       <use x="63.623047" xlink:href="#DejaVuSans-46"/>
       <use x="95.410156" xlink:href="#DejaVuSans-48"/>
       <use x="159.033203" xlink:href="#DejaVuSans-52"/>
       <use x="222.65625" xlink:href="#DejaVuSans-52"/>
      </g>
     </g>
    </g>
    <g id="ytick_6">
     <g id="line2d_12">
      <g>
       <use style="stroke:#000000;stroke-width:0.8;" x="57.6" xlink:href="#m9d2e161c69" y="102.442002"/>
      </g>
     </g>
     <g id="text_14">
      <!-- 0.046 -->
      <g transform="translate(21.971875 106.24122)scale(0.1 -0.1)">
       <use xlink:href="#DejaVuSans-48"/>
       <use x="63.623047" xlink:href="#DejaVuSans-46"/>
       <use x="95.410156" xlink:href="#DejaVuSans-48"/>
       <use x="159.033203" xlink:href="#DejaVuSans-52"/>
       <use x="222.65625" xlink:href="#DejaVuSans-54"/>
      </g>
     </g>
    </g>
    <g id="ytick_7">
     <g id="line2d_13">
      <g>
       <use style="stroke:#000000;stroke-width:0.8;" x="57.6" xlink:href="#m9d2e161c69" y="66.587298"/>
      </g>
     </g>
     <g id="text_15">
      <!-- 0.048 -->
      <g transform="translate(21.971875 70.386516)scale(0.1 -0.1)">
       <use xlink:href="#DejaVuSans-48"/>
       <use x="63.623047" xlink:href="#DejaVuSans-46"/>
       <use x="95.410156" xlink:href="#DejaVuSans-48"/>
       <use x="159.033203" xlink:href="#DejaVuSans-52"/>
       <use x="222.65625" xlink:href="#DejaVuSans-56"/>
      </g>
     </g>
    </g>
    <g id="text_16">
     <!-- Energy -->
     <defs>
      <path d="M 9.8125 72.90625 
L 55.90625 72.90625 
L 55.90625 64.59375 
L 19.671875 64.59375 
L 19.671875 43.015625 
L 54.390625 43.015625 
L 54.390625 34.71875 
L 19.671875 34.71875 
L 19.671875 8.296875 
L 56.78125 8.296875 
L 56.78125 0 
L 9.8125 0 
z
" id="DejaVuSans-69"/>
      <path d="M 54.890625 33.015625 
L 54.890625 0 
L 45.90625 0 
L 45.90625 32.71875 
Q 45.90625 40.484375 42.875 44.328125 
Q 39.84375 48.1875 33.796875 48.1875 
Q 26.515625 48.1875 22.3125 43.546875 
Q 18.109375 38.921875 18.109375 30.90625 
L 18.109375 0 
L 9.078125 0 
L 9.078125 54.6875 
L 18.109375 54.6875 
L 18.109375 46.1875 
Q 21.34375 51.125 25.703125 53.5625 
Q 30.078125 56 35.796875 56 
Q 45.21875 56 50.046875 50.171875 
Q 54.890625 44.34375 54.890625 33.015625 
z
" id="DejaVuSans-110"/>
      <path d="M 45.40625 27.984375 
Q 45.40625 37.75 41.375 43.109375 
Q 37.359375 48.484375 30.078125 48.484375 
Q 22.859375 48.484375 18.828125 43.109375 
Q 14.796875 37.75 14.796875 27.984375 
Q 14.796875 18.265625 18.828125 12.890625 
Q 22.859375 7.515625 30.078125 7.515625 
Q 37.359375 7.515625 41.375 12.890625 
Q 45.40625 18.265625 45.40625 27.984375 
z
M 54.390625 6.78125 
Q 54.390625 -7.171875 48.1875 -13.984375 
Q 42 -20.796875 29.203125 -20.796875 
Q 24.46875 -20.796875 20.265625 -20.09375 
Q 16.0625 -19.390625 12.109375 -17.921875 
L 12.109375 -9.1875 
Q 16.0625 -11.328125 19.921875 -12.34375 
Q 23.78125 -13.375 27.78125 -13.375 
Q 36.625 -13.375 41.015625 -8.765625 
Q 45.40625 -4.15625 45.40625 5.171875 
L 45.40625 9.625 
Q 42.625 4.78125 38.28125 2.390625 
Q 33.9375 0 27.875 0 
Q 17.828125 0 11.671875 7.65625 
Q 5.515625 15.328125 5.515625 27.984375 
Q 5.515625 40.671875 11.671875 48.328125 
Q 17.828125 56 27.875 56 
Q 33.9375 56 38.28125 53.609375 
Q 42.625 51.21875 45.40625 46.390625 
L 45.40625 54.6875 
L 54.390625 54.6875 
z
" id="DejaVuSans-103"/>
      <path d="M 32.171875 -5.078125 
Q 28.375 -14.84375 24.75 -17.8125 
Q 21.140625 -20.796875 15.09375 -20.796875 
L 7.90625 -20.796875 
L 7.90625 -13.28125 
L 13.1875 -13.28125 
Q 16.890625 -13.28125 18.9375 -11.515625 
Q 21 -9.765625 23.484375 -3.21875 
L 25.09375 0.875 
L 2.984375 54.6875 
L 12.5 54.6875 
L 29.59375 11.921875 
L 46.6875 54.6875 
L 56.203125 54.6875 
z
" id="DejaVuSans-121"/>
     </defs>
     <g transform="translate(15.892187 192.120969)rotate(-90)scale(0.1 -0.1)">
      <use xlink:href="#DejaVuSans-69"/>
      <use x="63.183594" xlink:href="#DejaVuSans-110"/>
      <use x="126.5625" xlink:href="#DejaVuSans-101"/>
      <use x="188.085938" xlink:href="#DejaVuSans-114"/>
      <use x="229.183594" xlink:href="#DejaVuSans-103"/>
      <use x="292.660156" xlink:href="#DejaVuSans-121"/>
     </g>
    </g>
   </g>
   <g id="patch_3">
    <path d="M 57.6 307.584 
L 57.6 41.472 
" style="fill:none;stroke:#000000;stroke-linecap:square;stroke-linejoin:miter;stroke-width:0.8;"/>
   </g>
   <g id="patch_4">
    <path d="M 414.72 307.584 
L 414.72 41.472 
" style="fill:none;stroke:#000000;stroke-linecap:square;stroke-linejoin:miter;stroke-width:0.8;"/>
   </g>
   <g id="patch_5">
    <path d="M 57.6 307.584 
L 414.72 307.584 
" style="fill:none;stroke:#000000;stroke-linecap:square;stroke-linejoin:miter;stroke-width:0.8;"/>
   </g>
   <g id="patch_6">
    <path d="M 57.6 41.472 
L 414.72 41.472 
" style="fill:none;stroke:#000000;stroke-linecap:square;stroke-linejoin:miter;stroke-width:0.8;"/>
   </g>
   <g id="text_17">
    <!-- out_fsweep_1V_04.csv -->
    <defs>
     <path d="M 30.609375 48.390625 
Q 23.390625 48.390625 19.1875 42.75 
Q 14.984375 37.109375 14.984375 27.296875 
Q 14.984375 17.484375 19.15625 11.84375 
Q 23.34375 6.203125 30.609375 6.203125 
Q 37.796875 6.203125 41.984375 11.859375 
Q 46.1875 17.53125 46.1875 27.296875 
Q 46.1875 37.015625 41.984375 42.703125 
Q 37.796875 48.390625 30.609375 48.390625 
z
M 30.609375 56 
Q 42.328125 56 49.015625 48.375 
Q 55.71875 40.765625 55.71875 27.296875 
Q 55.71875 13.875 49.015625 6.21875 
Q 42.328125 -1.421875 30.609375 -1.421875 
Q 18.84375 -1.421875 12.171875 6.21875 
Q 5.515625 13.875 5.515625 27.296875 
Q 5.515625 40.765625 12.171875 48.375 
Q 18.84375 56 30.609375 56 
z
" id="DejaVuSans-111"/>
     <path d="M 8.5 21.578125 
L 8.5 54.6875 
L 17.484375 54.6875 
L 17.484375 21.921875 
Q 17.484375 14.15625 20.5 10.265625 
Q 23.53125 6.390625 29.59375 6.390625 
Q 36.859375 6.390625 41.078125 11.03125 
Q 45.3125 15.671875 45.3125 23.6875 
L 45.3125 54.6875 
L 54.296875 54.6875 
L 54.296875 0 
L 45.3125 0 
L 45.3125 8.40625 
Q 42.046875 3.421875 37.71875 1 
Q 33.40625 -1.421875 27.6875 -1.421875 
Q 18.265625 -1.421875 13.375 4.4375 
Q 8.5 10.296875 8.5 21.578125 
z
M 31.109375 56 
z
" id="DejaVuSans-117"/>
     <path d="M 18.3125 70.21875 
L 18.3125 54.6875 
L 36.8125 54.6875 
L 36.8125 47.703125 
L 18.3125 47.703125 
L 18.3125 18.015625 
Q 18.3125 11.328125 20.140625 9.421875 
Q 21.96875 7.515625 27.59375 7.515625 
L 36.8125 7.515625 
L 36.8125 0 
L 27.59375 0 
Q 17.1875 0 13.234375 3.875 
Q 9.28125 7.765625 9.28125 18.015625 
L 9.28125 47.703125 
L 2.6875 47.703125 
L 2.6875 54.6875 
L 9.28125 54.6875 
L 9.28125 70.21875 
z
" id="DejaVuSans-116"/>
     <path d="M 37.109375 75.984375 
L 37.109375 68.5 
L 28.515625 68.5 
Q 23.6875 68.5 21.796875 66.546875 
Q 19.921875 64.59375 19.921875 59.515625 
L 19.921875 54.6875 
L 34.71875 54.6875 
L 34.71875 47.703125 
L 19.921875 47.703125 
L 19.921875 0 
L 10.890625 0 
L 10.890625 47.703125 
L 2.296875 47.703125 
L 2.296875 54.6875 
L 10.890625 54.6875 
L 10.890625 58.5 
Q 10.890625 67.625 15.140625 71.796875 
Q 19.390625 75.984375 28.609375 75.984375 
z
" id="DejaVuSans-102"/>
     <path d="M 4.203125 54.6875 
L 13.1875 54.6875 
L 24.421875 12.015625 
L 35.59375 54.6875 
L 46.1875 54.6875 
L 57.421875 12.015625 
L 68.609375 54.6875 
L 77.59375 54.6875 
L 63.28125 0 
L 52.6875 0 
L 40.921875 44.828125 
L 29.109375 0 
L 18.5 0 
z
" id="DejaVuSans-119"/>
     <path d="M 18.109375 8.203125 
L 18.109375 -20.796875 
L 9.078125 -20.796875 
L 9.078125 54.6875 
L 18.109375 54.6875 
L 18.109375 46.390625 
Q 20.953125 51.265625 25.265625 53.625 
Q 29.59375 56 35.59375 56 
Q 45.5625 56 51.78125 48.09375 
Q 58.015625 40.1875 58.015625 27.296875 
Q 58.015625 14.40625 51.78125 6.484375 
Q 45.5625 -1.421875 35.59375 -1.421875 
Q 29.59375 -1.421875 25.265625 0.953125 
Q 20.953125 3.328125 18.109375 8.203125 
z
M 48.6875 27.296875 
Q 48.6875 37.203125 44.609375 42.84375 
Q 40.53125 48.484375 33.40625 48.484375 
Q 26.265625 48.484375 22.1875 42.84375 
Q 18.109375 37.203125 18.109375 27.296875 
Q 18.109375 17.390625 22.1875 11.75 
Q 26.265625 6.109375 33.40625 6.109375 
Q 40.53125 6.109375 44.609375 11.75 
Q 48.6875 17.390625 48.6875 27.296875 
z
" id="DejaVuSans-112"/>
     <path d="M 28.609375 0 
L 0.78125 72.90625 
L 11.078125 72.90625 
L 34.1875 11.53125 
L 57.328125 72.90625 
L 67.578125 72.90625 
L 39.796875 0 
z
" id="DejaVuSans-86"/>
     <path d="M 48.78125 52.59375 
L 48.78125 44.1875 
Q 44.96875 46.296875 41.140625 47.34375 
Q 37.3125 48.390625 33.40625 48.390625 
Q 24.65625 48.390625 19.8125 42.84375 
Q 14.984375 37.3125 14.984375 27.296875 
Q 14.984375 17.28125 19.8125 11.734375 
Q 24.65625 6.203125 33.40625 6.203125 
Q 37.3125 6.203125 41.140625 7.25 
Q 44.96875 8.296875 48.78125 10.40625 
L 48.78125 2.09375 
Q 45.015625 0.34375 40.984375 -0.53125 
Q 36.96875 -1.421875 32.421875 -1.421875 
Q 20.0625 -1.421875 12.78125 6.34375 
Q 5.515625 14.109375 5.515625 27.296875 
Q 5.515625 40.671875 12.859375 48.328125 
Q 20.21875 56 33.015625 56 
Q 37.15625 56 41.109375 55.140625 
Q 45.0625 54.296875 48.78125 52.59375 
z
" id="DejaVuSans-99"/>
     <path d="M 2.984375 54.6875 
L 12.5 54.6875 
L 29.59375 8.796875 
L 46.6875 54.6875 
L 56.203125 54.6875 
L 35.6875 0 
L 23.484375 0 
z
" id="DejaVuSans-118"/>
    </defs>
    <g transform="translate(168.556875 35.472)scale(0.12 -0.12)">
     <use xlink:href="#DejaVuSans-111"/>
     <use x="61.181641" xlink:href="#DejaVuSans-117"/>
     <use x="124.560547" xlink:href="#DejaVuSans-116"/>
     <use x="163.769531" xlink:href="#DejaVuSans-95"/>
     <use x="213.769531" xlink:href="#DejaVuSans-102"/>
     <use x="248.974609" xlink:href="#DejaVuSans-115"/>
     <use x="301.074219" xlink:href="#DejaVuSans-119"/>
     <use x="382.861328" xlink:href="#DejaVuSans-101"/>
     <use x="444.384766" xlink:href="#DejaVuSans-101"/>
     <use x="505.908203" xlink:href="#DejaVuSans-112"/>
     <use x="569.384766" xlink:href="#DejaVuSans-95"/>
     <use x="619.384766" xlink:href="#DejaVuSans-49"/>
     <use x="683.007812" xlink:href="#DejaVuSans-86"/>
     <use x="751.416016" xlink:href="#DejaVuSans-95"/>
     <use x="801.416016" xlink:href="#DejaVuSans-48"/>
     <use x="865.039062" xlink:href="#DejaVuSans-52"/>
     <use x="928.662109" xlink:href="#DejaVuSans-46"/>
     <use x="960.449219" xlink:href="#DejaVuSans-99"/>
     <use x="1015.429688" xlink:href="#DejaVuSans-115"/>
     <use x="1067.529297" xlink:href="#DejaVuSans-118"/>
    </g>
   </g>
  </g>
 </g>
 <defs>
  <clipPath id="pa3cbb6a9e7">
   <rect height="266.112" width="357.12" x="57.6" y="41.472"/>
  </clipPath>
 </defs>
</svg>
